<?xml version="1.0" standalone="no"?>
<!DOCTYPE svg PUBLIC "-//W3C//DTD SVG 1.1//EN" "http://www.w3.org/Graphics/SVG/1.1/DTD/svg11.dtd" >
<svg xmlns="http://www.w3.org/2000/svg">
<metadata>
This is a custom SVG webfont generated by Font Squirrel.
Copyright   : Copyright c 2008 by Cameron Sweeney  RipeType All rights reserved
Designer    : Cameron Sweeney
Foundry     : Cameron Sweeney  RipeType
Foundry URL : httpwwwripetypecomau
</metadata>
<defs>
<font id="webfontXSvhcPKw" horiz-adv-x="1224" >
<font-face units-per-em="2048" ascent="1536" descent="-512" />
<missing-glyph horiz-adv-x="823" />
<glyph unicode=" "  horiz-adv-x="823" />
<glyph unicode="&#x09;" horiz-adv-x="823" />
<glyph unicode="&#xa0;" horiz-adv-x="823" />
<glyph unicode="!" horiz-adv-x="212" d="M43 1565h61v-1254h-61v1254zM75.5 127q24.5 0 43 -19.5t18.5 -46.5q0 -23 -18.5 -42t-43 -19t-43 19.5t-18.5 41.5q0 27 18.5 46.5t43 19.5z" />
<glyph unicode="&#x22;" horiz-adv-x="274" d="M16 1352h60v-183h-60v183zM145 1352h58v-183h-58v183z" />
<glyph unicode="#" horiz-adv-x="565" d="M485 594h-88l-28 -129h96q-2 -18 -6 -35.5t-4 -26.5h-90l-46 -258h-61l45 258h-131l-41 -258h-65l47 258h-97q2 18 6.5 36t4.5 26h88l28 129h-96q2 23 10 63h90l29 134l19 83h59l-45 -217h133l41 217h57l-39 -217h97zM307 465l29 129h-131l-29 -129h131z" />
<glyph unicode="$" horiz-adv-x="995" d="M559 1382v-501q160 -23 270.5 -137.5t110.5 -264.5v-61q0 -166 -105.5 -293t-275.5 -166v-192h-61l-6 182q-45 0 -119 12v-194h-62v213q-137 59 -219 175.5t-82 262.5v45h60v-45q0 -109 64.5 -209t176.5 -170v788q-106 31 -174.5 112t-68.5 185q0 109 67.5 198t175.5 130 v164h62v-152q57 0 125 -14v166h61v-180l25 -25l22 -12h-2q20 -16 78 -74v121h195q12 0 21 -10.5t9 -22.5t-9 -20.5t-21 -8.5h-64q-33 0 -51.5 -18t-18.5 -49v-176h-63q-10 96 -121 241zM879 418v61q0 123 -91.5 219.5t-228.5 124.5v-809q145 47 232.5 157t87.5 247zM498 10 v811h-125v-803q51 -8 125 -8zM311 887v512q-180 -137 -180 -275q0 -68 48 -131t132 -106zM498 883v506q-55 14 -125 14v-520h125z" />
<glyph unicode="&#x26;" horiz-adv-x="1130" d="M950 471q0 -168 -125 -317q10 -8 201 -174h-2l49 -41l-41 -39q-10 10 -25.5 20t-21.5 17l-43 36q-6 4 -14 14.5t-13 12.5v-2l-133 115q-145 -111 -305 -111q-193 0 -331 138.5t-138 331t178 323.5q-82 158 -82 301q0 160 132 303q121 109 268 108q162 0 270 -108 l117 -117l-129 -129v2q-23 -25 -41 -2h2q-10 8 -10 21.5t8 21.5l41 43q14 12 16 40t-8 42l-45 47q-96 84 -221 84q-133 0 -223 -94q-111 -109 -111 -256q0 -109 72 -262l-2 2l14 -23l29 -51l12 -25q162 -262 491 -555q106 141 107 283v186h-166q-63 0 -63 -63v-62 q0 -10 -10.5 -19t-20.5 -9t-18.5 9t-8.5 19v181h344v-242zM477 57q125 0 271 93q-344 297 -535 604q-68 -55 -109 -131t-41 -152q0 -170 122 -292t292 -122z" />
<glyph unicode="'" horiz-adv-x="151" d="M16 1352h58v-183h-58v183z" />
<glyph unicode="(" horiz-adv-x="591" d="M494 -190q16 -16 30 -25q6 -25 -6 -45q-10 -10 -27.5 -10t-27.5 8l6 -2q-213 168 -335 408.5t-122 510.5q0 272 119 511t322 403q12 6 18 8q8 6 22.5 5t22.5 -9q18 -16 4 -45l-28 -25q-178 -156 -290 -383t-112 -465q0 -252 108 -471.5t296 -373.5z" />
<glyph unicode=")" horiz-adv-x="591" d="M63 1587l7 -8q0 2 -3.5 4t-3.5 4zM16 -215l31 25q188 154 296 373.5t108 471.5q0 250 -107.5 472.5t-294.5 375.5q-12 12 -31 25q-12 31 7 45q23 25 45 6q6 -6 16 -6q-18 8 -6 33l10 -41q205 -166 321.5 -402.5t116.5 -507.5q0 -264 -120.5 -505.5t-319.5 -405.5 q-6 -6 -12 -6q-23 -23 -53 2q-19 14 -7 45z" />
<glyph unicode="*" horiz-adv-x="567" d="M502 1280h-240q20 -18 189 -186l-43 -43l-152 149l-152 -149l-43 45l185 184h-234v61h213v150h64v-150h213v-61z" />
<glyph unicode="+" horiz-adv-x="567" d="M502 565v-61h-213v-213h-64v213h-213v61h213v215h64v-215h213z" />
<glyph unicode="," horiz-adv-x="200" d="M76 -63l-56 14l46 178l57 -14z" />
<glyph unicode="-" horiz-adv-x="567" d="M12 567h490v-61h-490v61z" />
<glyph unicode="." horiz-adv-x="212" d="M80 63q-27 0 -46.5 18.5t-19.5 43.5t19.5 43t46.5 18q23 0 40 -18t17 -43t-17 -43.5t-40 -18.5z" />
<glyph unicode="/" horiz-adv-x="622" d="M555 1583l-479 -1792l-62 16l480 1790z" />
<glyph unicode="0" horiz-adv-x="1042" d="M498 1458q188 0 339.5 -145.5t151.5 -345.5v-478q0 -201 -150.5 -345t-340.5 -144q-205 0 -346.5 141.5t-141.5 347.5v478q0 205 141.5 348t346.5 143zM498 59q182 0 307 118t125 312v478q0 174 -129 302t-303 128q-193 0 -310.5 -125t-117.5 -305v-478 q0 -199 114.5 -314.5t313.5 -115.5z" />
<glyph unicode="1" horiz-adv-x="550" d="M440 121q45 0 45 -33q0 -27 -45 -27h-284q-47 0 -47 27q0 33 47 33h39q55 0 64 9t9 69v1122l-116 -115h-95q-43 0 -43 25q0 33 43 33h70l201 200v-1265q0 -57 11 -67.5t69 -10.5h32z" />
<glyph unicode="2" horiz-adv-x="980" d="M864 276q31 0 31 -32v-183h-864l768 865q76 76 75 180q0 109 -77 186q-145 150 -330 150q-160 0 -313 -137l-45 43q166 147 358 147q203 0 369 -160v2q88 -88 88 -231q0 -131 -90 -227l-252 -289v2l-152 -176l-254 -295h578q31 0 56.5 23.5t25.5 54.5v45q-1 32 28 32z " />
<glyph unicode="3" horiz-adv-x="827" d="M672 1155q0 -59 -46 -126.5t-126 -125.5q123 -61 194.5 -166.5t71.5 -214.5v-65q0 -182 -136 -319.5t-319 -137.5q-139 0 -291 113l37 37q133 -90 254 -91q150 0 274 125t124 273v65q0 135 -94.5 227.5t-223.5 104.5v66q84 20 153.5 86.5t69.5 148.5q0 121 -81.5 196.5 t-188.5 75.5q-168 0 -256 -69l-41 45q133 82 297 82q133 0 230.5 -97.5t97.5 -232.5z" />
<glyph unicode="4" horiz-adv-x="827" d="M733 121q33 0 33 -31q0 -29 -33 -29h-182v764h-539v72l531 500l69 67v-579h127v-60h-127v-626q0 -33 22.5 -55.5t55.5 -22.5h43zM113 885h438v436z" />
<glyph unicode="5" horiz-adv-x="796" d="M344 918q158 0 276.5 -119t118.5 -277v-65q0 -188 -130 -322.5t-330 -134.5q-59 0 -134 33t-127 78l39 39q96 -90 222 -91q170 0 284.5 122t114.5 276v65q0 150 -91 242t-243 92h-330q16 119 51 322.5t50 306.5h559v-170q0 -18 -9.5 -31.5t-21.5 -13.5q-29 0 -29 45v61 q0 39 -6 45t-45 6h-395q-16 -92 -23 -174l-8 -71v2l-37 -266h244z" />
<glyph unicode="6" horiz-adv-x="1042" d="M10 489v62l35 280l29 213q14 127 94 226q61 82 162.5 131t216.5 57v-63q-141 -14 -266 -115.5t-152 -226.5l-33 -258q209 184 404 184q205 0 347 -141.5t142 -348t-142 -348t-347 -141.5q-207 0 -348.5 141t-141.5 348zM500 920q-174 0 -302 -128t-128 -302.5t128 -302.5 t302 -128t302 128t128 302.5t-128 302.5t-302 128z" />
<glyph unicode="7" horiz-adv-x="919" d="M834 1415l-478 -1214l-16 -43q29 -37 84 -37h55q37 0 37 -33q0 -27 -37 -27h-260l76 162l283 699l92 229l110 276h-630q-59 0 -68.5 -6t-9.5 -45v-61q0 -45 -33 -45q-27 0 -27 45v170h848z" />
<glyph unicode="8" horiz-adv-x="960" d="M791 1155q0 -113 -142 -258q109 -63 183.5 -166.5t74.5 -208.5v-65q-4 -170 -139 -313.5t-313 -143.5q-156 0 -290 143.5t-155 315.5v63q0 102 83 209t208 172q-82 57 -128 125t-46 127q0 135 98.5 232.5t229.5 97.5q137 0 236.5 -97.5t99.5 -232.5zM186 1155 q0 -102 68 -169.5t172 -67.5h63q102 0 170 67.5t68 169.5q0 127 -71.5 199.5t-200.5 72.5q-106 0 -187.5 -75.5t-81.5 -196.5zM846 457v65q0 150 -101.5 242t-255.5 92h-63q-131 0 -243.5 -95t-112.5 -239v-65q0 -150 117.5 -274t267.5 -124q152 0 271.5 124t119.5 274z" />
<glyph unicode="9" horiz-adv-x="1042" d="M989 967v-60l-35 -286l-12 -107l-12 -106q-23 -123 -99 -222q-61 -80 -163.5 -129t-212.5 -57v61q143 14 266 116t149 224l31 248q-211 -176 -403 -176q-205 0 -346.5 143.5t-141.5 350.5q0 205 141.5 348t346.5 143q207 0 349 -143t142 -348zM498 535q176 0 304 128 t128 304q0 174 -129 302t-303 128q-172 0 -300 -128t-128 -302q0 -176 128 -304t300 -128z" />
<glyph unicode=":" horiz-adv-x="212" d="M80 63q-27 0 -46.5 18.5t-19.5 43.5t19.5 43t46.5 18q23 0 40 -18t17 -43t-17 -43.5t-40 -18.5zM80 805q-27 0 -46.5 18.5t-19.5 42.5q0 27 19.5 46.5t46.5 19.5q23 0 40 -19.5t17 -46.5q0 -23 -17 -42t-40 -19z" />
<glyph unicode=";" horiz-adv-x="225" d="M76 -63l-58 14l48 178l57 -14zM80 805q-27 0 -46.5 18.5t-19.5 42.5q0 27 19.5 46.5t46.5 19.5q23 0 40 -19.5t17 -46.5q0 -23 -17 -42t-40 -19z" />
<glyph unicode="&#x3c;" horiz-adv-x="335" d="M215 743l41 -41l-154 -147l156 -156q-8 -12 -23.5 -25.5t-19.5 -19.5l-192 197z" />
<glyph unicode="=" horiz-adv-x="567" d="M12 463h490v-62h-490v62zM12 672h490v-60h-490v60z" />
<glyph unicode="&#x3e;" horiz-adv-x="335" d="M25 702l38 43l195 -192l-192 -199l-43 45l151 156z" />
<glyph unicode="?" horiz-adv-x="1011" d="M483 1565q195 0 334 -139.5t139 -333.5q0 -203 -109.5 -340.5t-299.5 -137.5q-123 0 -191.5 -85t-76.5 -220h-54q12 154 96.5 257.5t225.5 103.5q166 0 260 119.5t94 302.5q0 172 -122 293.5t-296 121.5q-166 0 -286.5 -114.5t-128.5 -284.5h-56q16 188 151.5 322.5 t319.5 134.5zM254 117q23 0 38 -18.5t15 -43.5q0 -23 -15.5 -39t-37.5 -16q-25 0 -41 16.5t-16 38.5q0 25 16 43.5t41 18.5z" />
<glyph unicode="@" horiz-adv-x="1122" d="M1073 530v-6l-2 -4v-49q0 -33 -14 -68v3q-43 -115 -160 -132h-18h-9l-4 -2q-90 0 -141 62l-43 43q-82 -59 -152 -60q-84 0 -144 60.5t-60 144.5q0 82 60 141.5t144 59.5q47 0 158 -61v63h84q27 0 27 -27v-6q-6 -16 -62 -16l-2 -223q2 -14 15 -41q20 -33 63 -64 q10 -6 88 -18q0 8 -14 8q35 6 66.5 32.5t47.5 61.5l3 2v6q2 6 2 9q2 6 2 22q4 33 4 59q0 70 -33 168q-55 133 -176 218t-264 85q-195 0 -332 -138t-137 -332.5t137 -332t332 -137.5q158 0 284 93q6 4 6 6q12 6 29 6q25 -29 14 -43q-12 -18 -18 -23q-143 -100 -315 -100 q-219 0 -375 155.5t-156 375t155.5 375t375.5 155.5q166 0 298 -85t187 -222v2l23 -62q26 -76 26 -164zM530 369q96 0 140 92q12 27 12 61q0 6 -2 13q-8 57 -50 97t-100 40q-61 0 -107 -45t-46 -105q0 -66 45 -109.5t108 -43.5zM655 508l-26 -4l26 -23v27zM655 481l15 -10 l-15 -14v24zM639 440l16 -2v19zM674 475l-4 -4l2 -2v2z" />
<glyph unicode="A" horiz-adv-x="1431" d="M1348 57q31 0 30 -26q0 -12 -9 -21.5t-21 -9.5h-129l-68 172l-240 649h-440l-240 -651l-61 -170h-127q-14 0 -23.5 9t-9.5 22q0 27 33 26h53l31 4q14 51 27 70l10 25l233 641l37 92l191 524q4 14 15 41t15 41h76l33 -84v2l190 -524l35 -92l264 -721q25 -18 35 -19h60z M494 879h397l-199 544z" />
<glyph unicode="B" horiz-adv-x="1210" d="M958 1165.5q0 -137.5 -145 -266.5q154 -68 246 -190.5t92 -272.5q0 -203 -143.5 -347t-345.5 -144q-102 0 -217 63.5t-214 169.5v-174h-190q-29 0 -29 31q0 27 29 26h65q29 0 48.5 18.5t19.5 49.5v1178q0 31 -19.5 48t-48.5 17h-65q-29 0 -29 33q0 27 29 27h190v-148 q92 96 199 154.5t199 58.5q137 0 233 -97t96 -234.5zM662 6q178 0 304 125t126 305q0 178 -126 305t-304 127h-431v-432q0 -180 125.5 -305t305.5 -125zM231 1038v-112h431q100 0 169.5 69.5t69.5 169.5q0 113 -79 193t-193 80q-166 0 -282 -117t-116 -283z" />
<glyph unicode="C" horiz-adv-x="1060" d="M999 1257v-2v-2l-2 -4l2 -8v-219h-59q-8 176 -133 296t-299 120q-182 0 -308 -126t-126 -308v-558q0 -182 126 -308t308 -126q174 0 299 120t133 294h57q-10 -201 -152.5 -339t-336.5 -138q-205 0 -351.5 146.5t-146.5 350.5v558q0 203 146.5 348t351.5 145 q123 0 232.5 -62.5t187.5 -170.5q33 27 39 26q14 0 23 -10.5t9 -22.5z" />
<glyph unicode="D" horiz-adv-x="1179" d="M41 61h65q29 0 47.5 18.5t18.5 47.5v1180q0 31 -18.5 48t-47.5 17h-65q-12 0 -20.5 10.5t-8.5 22.5q0 10 8.5 19.5t20.5 9.5h190v-150q207 213 400 213q180 0 315 -137t144 -322l32 -587q-4 -205 -134 -348.5t-326 -143.5q-104 0 -218 63.5t-213 170.5v-191h-190 q-29 0 -29 33q0 26 29 26zM662 20q178 0 288.5 124t110.5 309l-35 589q-2 162 -117.5 279t-277.5 117q-166 0 -283 -117t-117 -281v-587q0 -180 125.5 -306.5t305.5 -126.5z" />
<glyph unicode="E" horiz-adv-x="1021" d="M958 1432v-191q0 -12 -9 -20.5t-19 -8.5q-29 0 -29 29v66q0 29 -17.5 46t-47.5 17h-603v-463h512q31 0 48.5 18.5t17.5 47.5v65q0 12 10 20.5t22.5 8.5t21.5 -8t9 -21v-323q0 -10 -10 -19.5t-20 -9.5q-12 0 -22.5 9.5t-10.5 19.5v67q0 66 -66 66h-512v-791h603 q31 0 48 19.5t17 48.5v65q0 12 8.5 22.5t20.5 10.5q10 0 19 -10t9 -23v-190h-915q-33 0 -33 33q0 25 33 24h66q29 0 46 19.5t17 48.5v1182q0 29 -17.5 46t-45.5 17h-66q-14 0 -23.5 10.5t-9.5 22.5q0 10 9.5 19.5t23.5 9.5h915z" />
<glyph unicode="F" horiz-adv-x="1021" d="M958 1432v-191q0 -12 -9 -20.5t-19 -8.5q-29 0 -29 29v66q0 29 -17.5 46t-47.5 17h-603v-463h512q31 0 48.5 18.5t17.5 47.5v65q0 12 10 20.5t22.5 8.5t21.5 -8t9 -21v-323q0 -10 -10 -19.5t-20 -9.5q-12 0 -22.5 9.5t-10.5 19.5v67q0 66 -66 66h-512v-848h-190 q-33 0 -33 33q0 25 33 24h66q29 0 46 19.5t17 48.5v1182q0 29 -17.5 46t-45.5 17h-66q-14 0 -23.5 10.5t-9.5 22.5q0 10 9.5 19.5t23.5 9.5h915z" />
<glyph unicode="G" horiz-adv-x="1058" d="M997 1257v-235h-57q-8 178 -133 297t-299 119q-182 0 -308 -126t-126 -308v-555q0 -182 126 -308.5t308 -126.5q180 0 306 126t126 309v190h-178q-61 0 -62 -66v-65q0 -29 -32.5 -29t-32.5 29v190h362v-249q0 -205 -144 -351.5t-345 -146.5q-205 0 -351.5 145.5 t-146.5 352.5v555q0 203 146.5 348t351.5 145q121 0 231.5 -62.5t190.5 -172.5q29 29 37 28q12 0 21 -10.5t9 -22.5z" />
<glyph unicode="H" horiz-adv-x="1181" d="M1094 57q12 0 21 -7t9 -17q0 -14 -9 -23.5t-21 -9.5h-193v848h-670v-848h-190q-29 0 -29 33q0 25 29 24h65q27 0 46.5 19.5t19.5 48.5v1182q0 27 -18.5 45t-47.5 18h-65q-12 0 -20.5 10.5t-8.5 22.5q0 10 8.5 19.5t20.5 9.5h190v-525h670v525h193q12 0 21 -9.5t9 -19.5 q0 -12 -9 -22.5t-21 -10.5h-66q-31 0 -48 -17.5t-17 -45.5v-1182q0 -29 17 -48.5t48 -19.5h66z" />
<glyph unicode="I" horiz-adv-x="471" d="M371 59q27 0 26 -26q0 -33 -26 -33h-326q-29 0 -29 33q0 27 29 26h66q31 0 49 18.5t18 49.5v1178q0 66 -67 65h-66q-29 0 -29 33q0 29 29 29h326q10 0 18 -9.5t8 -19.5q0 -12 -8 -22.5t-18 -10.5h-68q-31 0 -48 -17.5t-17 -45.5v-1180q0 -68 65 -68h68z" />
<glyph unicode="J" horiz-adv-x="684" d="M586 1432q29 0 28 -29q0 -31 -28 -31h-66q-57 0 -67 -61v-852q0 -176 -128 -308.5t-311 -148.5v57q162 10 271.5 126t109.5 274v848q0 29 -17.5 47t-47.5 18h-68q-10 0 -18 10.5t-8 20.5t8 19.5t18 9.5h324z" />
<glyph unicode="K" horiz-adv-x="1112" d="M1020 59q33 0 33 -26q0 -33 -33 -33h-107l-682 682v-682h-190q-12 0 -21.5 9t-9.5 24q0 27 31 26h68q27 0 45 18.5t18 47.5v1173q0 31 -17.5 48.5t-45.5 17.5h-68q-12 0 -21.5 9t-9.5 24q0 27 31 26h190v-653l664 662h106q12 0 22.5 -9.5t10.5 -19.5t-10 -20.5t-23 -10.5 h-30q-45 -4 -84 -37l-608 -608l630 -631h-2q29 -37 86 -37h27z" />
<glyph unicode="L" horiz-adv-x="845" d="M752 225q10 0 20 -10t10 -22v-193h-737q-33 0 -33 33q0 27 33 26h61q31 0 49.5 18.5t18.5 49.5v1178q0 66 -68 65h-61q-14 0 -23.5 10.5t-9.5 22.5q0 10 9.5 19.5t23.5 9.5h322q12 0 21 -9.5t9 -19.5q0 -12 -9 -22.5t-21 -10.5h-68q-25 0 -43 -17.5t-18 -47.5v-1178 q0 -31 18 -49.5t43 -18.5h358q61 0 62 68v66q0 12 10.5 22t22.5 10z" />
<glyph unicode="M" horiz-adv-x="1785" d="M1706 57q12 0 21.5 -7t9.5 -17q0 -14 -9.5 -23.5t-21.5 -9.5h-184v1354l-594 -590l-54 -57l-647 649v-1356h-190q-12 0 -21.5 9t-9.5 24q0 10 9.5 17t21.5 7h65q63 0 64 68v1184q0 63 -64 63h-65q-12 0 -21.5 10.5t-9.5 22.5q0 10 9.5 18.5t21.5 8.5h203l634 -633 l633 633h199q12 0 21.5 -8.5t9.5 -18.5q0 -12 -9.5 -22.5t-21.5 -10.5h-61q-27 0 -45.5 -18.5t-18.5 -44.5v-1184q0 -31 17.5 -49.5t46.5 -18.5h61z" />
<glyph unicode="N" horiz-adv-x="1120" d="M1028 45q33 0 33 -29q0 -12 -9.5 -21t-23.5 -9h-197l-538 1200l-62 -12v-1172h-190q-12 0 -21.5 9t-9.5 22q0 27 31 26h68q29 0 46 18.5t17 49.5v1196q0 29 -18.5 47.5t-44.5 18.5h-68q-12 0 -21.5 9t-9.5 21q0 29 31 29h199l538 -1200l60 14v1170h190q14 0 23.5 -9.5 t9.5 -19.5t-10.5 -20.5t-22.5 -10.5h-65q-27 0 -43.5 -17.5t-16.5 -47.5v-1198q0 -27 16.5 -45.5t43.5 -18.5h65z" />
<glyph unicode="O" horiz-adv-x="1062" d="M510 1497q201 0 346 -146.5t145 -349.5v-561q0 -205 -145 -350t-346 -145q-207 0 -353.5 145.5t-146.5 349.5v561q0 203 146.5 349.5t353.5 146.5zM942 440v561q0 182 -126 309.5t-306 127.5q-182 0 -309 -127t-127 -310v-561q0 -182 127 -308t309 -126q180 0 306 127 t126 307z" />
<glyph unicode="P" horiz-adv-x="1210" d="M662 1430q205 0 347 -142.5t142 -347.5q0 -203 -142.5 -345t-346.5 -142q-104 0 -218 63.5t-213 171.5v-688h-190q-29 0 -29 33q0 27 29 26h65q29 0 47.5 19.5t18.5 46.5v1180q0 31 -18.5 48t-47.5 17h-65q-29 0 -29 33q0 27 29 27h190v-234q98 104 213.5 169t217.5 65z M661.5 510q180.5 0 305.5 125t125 305t-125 305t-305.5 125t-305.5 -125t-125 -305t125 -305t305.5 -125z" />
<glyph unicode="Q" horiz-adv-x="1146" d="M887 125l196 -197q-4 -4 -47 -41l-192 193q-164 -133 -338 -133q-205 0 -349.5 146.5t-144.5 352.5v555q0 203 144.5 349.5t349.5 146.5q203 0 348 -146.5t145 -349.5v-555q1 -165 -112 -321zM610 311l45 47l189 -186q94 135 94 274v555q0 182 -126 309.5t-306 127.5 t-306 -127t-126 -310v-555q0 -182 126 -309t306 -127q150 0 293 111zM866 231l-55 -4l25 -57l4 4h2z" />
<glyph unicode="R" horiz-adv-x="1210" d="M1151 940q0 -180 -135 -319.5t-330 -167.5l45 -107l14 -39l43 -94l60 -133q16 -49 59 -49h60q27 0 26 -31q0 -10 -8 -20.5t-18 -10.5h-136l-217 486q-205 31 -383 237v-690h-190q-29 0 -29 33q0 25 29 24h65q27 0 46.5 19.5t19.5 48.5v1180q0 27 -18.5 45t-47.5 18h-65 q-29 0 -29 33q0 29 29 29h190v-240q100 111 213 175.5t218 64.5q203 0 346 -143.5t143 -348.5zM662 512q180 0 304 125t124 303q0 180 -125 305t-303 125q-180 0 -305.5 -125t-125.5 -305q0 -135 93.5 -250t226.5 -164q45 -14 111 -14z" />
<glyph unicode="S" horiz-adv-x="995" d="M532 879q164 0 282 -118t118 -282v-59q0 -190 -135 -326.5t-324 -136.5q-190 0 -326.5 136t-136.5 327v43h64v-43q0 -168 115.5 -285t283.5 -117t283.5 117t115.5 285v59q0 141 -98 239.5t-242 98.5h-161q-125 0 -212 88t-87 213q0 137 97 235.5t234 98.5q121 0 275 -123 v105h192q25 0 25 -29q0 -33 -25 -33h-67q-66 0 -66 -65v-172h-63q-10 111 -87 184.5t-184 73.5q-113 0 -192.5 -80t-79.5 -195q0 -98 69.5 -168.5t170.5 -70.5h161z" />
<glyph unicode="T" horiz-adv-x="1110" d="M1051 1241q0 -29 -33 -29q-31 0 -31 29v66q0 66 -63 65h-297q-68 0 -68 -65v-1178q0 -31 18.5 -49.5t49.5 -18.5h65q29 0 29 -26q0 -33 -29 -33h-325q-27 0 -27 33q0 27 27 26h67q66 0 66 68v1178q0 66 -66 65h-295q-29 0 -47 -17.5t-18 -47.5v-66q0 -29 -33 -29 q-31 0 -31 29v193h1041v-193z" />
<glyph unicode="U" horiz-adv-x="1368" d="M1284 59q10 0 19.5 -7t9.5 -17q0 -14 -9.5 -23.5t-19.5 -9.5h-194v174q-94 -111 -208 -174t-223 -63q-201 0 -344 143t-143 348v877q0 31 -19.5 48t-48.5 17h-65q-10 0 -19.5 10.5t-9.5 22.5q0 10 9.5 18.5t19.5 8.5h190v-1002q0 -180 125 -305t305.5 -125t305.5 125 t125 305v1002h194q10 0 19.5 -8.5t9.5 -18.5q0 -12 -9.5 -22.5t-19.5 -10.5h-67q-27 0 -44.5 -17.5t-17.5 -47.5v-1180q0 -29 17.5 -48.5t44.5 -19.5h67z" />
<glyph unicode="V" horiz-adv-x="1423" d="M1339 1432q12 0 21.5 -9.5t9.5 -19.5t-9 -20.5t-22 -10.5h-82l-26 -59q-2 -10 -8 -21q-2 -6 -6.5 -13t-4.5 -11l2 2l-454 -1241l-19 -45q-2 -6 -7 -14.5t-5 -12.5l2 2l-4 -14h-76l-30 86v2l-187 502v-3l-272 740l-29 80l-31 20h-61q-12 0 -21.5 10.5t-9.5 20.5t9.5 19.5 t21.5 9.5h127l63 -172l455 -1248l166 447l293 803v-2l67 172h127z" />
<glyph unicode="W" horiz-adv-x="2435" d="M2370 1425q10 0 20 -8t10 -16q0 -12 -10 -22.5t-20 -10.5h-60l-33 -4q-2 -4 -11 -29.5t-11 -34.5l-17 -34l3 2l-455 -1254l-33 -88h-78l-30 88l-60 158l-98 270l-285 779l-237 -648l-205 -559l-25 -65q-6 -12 -8 -23h-76l-30 88l-463 1256v-2l-37 98l-86 2 q-12 0 -21.5 10.5t-9.5 22.5q0 10 9.5 17t21.5 7h133l61 -168l80 -215l379 -1042l461 1260h-4q10 14 24 47l-16 47l-35 14h-59q-10 0 -20.5 10.5t-10.5 22.5q0 8 10.5 16t20.5 8h284q33 0 33 -24q0 -12 -9 -22.5t-24 -10.5h-57q-10 0 -37 -12l-14 -47l12 -47l465 -1264 l152 416v-2l372 1013h134zM1083 1270q4 -44 20 -44t42 34z" />
<glyph unicode="X" horiz-adv-x="1196" d="M1110 59q23 -4 23 -26q0 -33 -27 -33h-139l-33 78l-359 590l-362 -590l-33 -78h-139q-29 0 -29 33q0 18 27 26h33q55 0 78 25l34 61v-2l363 574l-199 330q-137 221 -174 307q-6 0 -16 -2q-20 14 -74 18h-31q-10 0 -19 10.5t-9 20.5t9 19.5t19 9.5h142l65 -130l315 -522 l177 279l149 235q4 8 82 140h125q27 0 27 -29q0 -31 -27 -31h-31q-55 -4 -88 -33q-4 -18 -39 -65l-196 -318l-68 -110l2 2l-80 -129l375 -621v2q20 -41 92 -41h35z" />
<glyph unicode="Y" horiz-adv-x="1173" d="M1083 1430q12 0 22.5 -8.5t10.5 -18.5q0 -12 -9 -22.5t-24 -10.5h-26q-74 0 -92 -41v2l-33 -59q-12 -23 -39 -62l-37 -53l2 2l-78 -123l-108 -178v2l-80 -131v-604q0 -31 17.5 -49.5t45.5 -18.5h68q27 0 27 -26q0 -31 -27 -31h-320q-29 0 -28 31q0 27 28 26h64 q31 0 49.5 18.5t18.5 49.5v580l-17 26l-188 318q-16 23 -47 76l-43 75l-93 150q-18 18 -77 18h-31q-10 0 -18.5 10.5t-8.5 22.5q0 10 8.5 17t18.5 7h141l62 -125l319 -520l172 271l109 174l41 69l51 90l-2 -2l29 48h122z" />
<glyph unicode="Z" horiz-adv-x="942" d="M850 223q27 0 27 -33v-190h-826l697 1372h-613q-25 0 -43 -19.5t-18 -45.5v-66q0 -29 -31 -29t-31 29v191h846l-692 -1373h584q31 0 49 18.5t18 47.5v65q0 12 9.5 22.5t23.5 10.5z" />
<glyph unicode="[" horiz-adv-x="354" d="M283 -229h-267v1855h267v-61h-205v-1733h205v-61z" />
<glyph unicode="\" horiz-adv-x="622" d="M494 -209l-480 1792l62 14l479 -1790z" />
<glyph unicode="]" horiz-adv-x="354" d="M283 -229h-267v61h205v1733h-205v61h267v-1855z" />
<glyph unicode="^" horiz-adv-x="481" d="M408 1198l-46 -43l-147 152l-152 -152l-45 43l195 193z" />
<glyph unicode="_" horiz-adv-x="1044" d="M10 61h981v-61h-981v61z" />
<glyph unicode="`" horiz-adv-x="393" d="M20 1331l41 41l258 -256l-43 -43z" />
<glyph unicode="a" d="M1149 127q27 0 27 -35q0 -27 -27 -26h-197v186q-98 -115 -218 -183.5t-228 -68.5q-205 0 -352.5 146.5t-147.5 353.5q0 205 147.5 350t352.5 145q117 0 232.5 -66.5t213.5 -187.5v258h197q10 0 18.5 -10t8.5 -22q0 -29 -27 -29h-70q-27 0 -46 -18.5t-19 -47.5v-684 q0 -27 18.5 -44t46.5 -17h70zM506 61q184 0 311 127t127 312q0 180 -127 307t-311 127q-180 0 -309 -127t-129 -307q0 -182 129 -310.5t309 -128.5z" />
<glyph unicode="b" d="M676 995q209 0 354.5 -144t145.5 -351q0 -209 -145.5 -354.5t-354.5 -145.5q-115 0 -230.5 65.5t-212.5 186.5v-191h-192q-35 0 -35 27q0 14 11.5 24.5t23.5 10.5h61q33 0 51.5 17.5t18.5 43.5v1139q0 63 -70 63h-61q-12 0 -23.5 9.5t-11.5 19.5q0 14 11.5 24.5 t23.5 10.5h192v-705q100 113 217 181.5t226 68.5zM676 61q182 0 311 128t129 311q0 180 -129 307t-311 127q-178 0 -305 -127t-127 -307q0 -182 127 -310.5t305 -128.5z" />
<glyph unicode="c" horiz-adv-x="968" d="M213 201q143 -139 332 -140q166 0 317 129q16 -18 47 -40q-174 -150 -366 -150q-211 0 -375 158q-158 152 -158 374q0 225 158 377q160 156 375 156q180 0 366 -145q-16 -16 -49 -46q-143 127 -315 127q-201 0 -334 -143h2q-141 -137 -141 -326q0 -190 141 -331z" />
<glyph unicode="d" d="M1149 123q27 0 27 -35q0 -27 -27 -27h-197v191q-98 -115 -218 -183.5t-228 -68.5q-205 0 -352.5 146.5t-147.5 353.5q0 205 147.5 350t352.5 145q117 0 232.5 -66.5t213.5 -187.5v709h197q27 0 27 -35q0 -10 -8.5 -19.5t-18.5 -9.5h-70q-29 0 -47 -16t-18 -47v-1139 q0 -27 18.5 -44t46.5 -17h70zM506 61q184 0 311 127t127 312q0 180 -127 307t-311 127q-180 0 -309 -127t-129 -307q0 -182 129 -310.5t309 -128.5z" />
<glyph unicode="e" horiz-adv-x="1064" d="M1010 520h-942q12 -205 135 -332q131 -127 311 -127q158 0 299 117l45 -45q-78 -57 -173 -95t-171 -38q-215 0 -358 145q-147 147 -148 357q0 207 148.5 352t359.5 145q197 0 339.5 -139t154.5 -340zM80 582h860q-47 156 -162.5 256t-261.5 100q-156 0 -275.5 -99 t-160.5 -257z" />
<glyph unicode="f" horiz-adv-x="610" d="M512 1391q-115 0 -195.5 -80t-80.5 -193v-121h233q10 0 17.5 -9t7.5 -19q0 -29 -25 -29h-164q-70 0 -69 -70v-686q0 -27 19 -46t50 -19h62q14 0 25 -10.5t11 -20.5q0 -27 -36 -27h-320q-35 0 -35 27q0 10 10.5 20.5t24.5 10.5h62q27 0 46 20.5t19 44.5v686 q0 27 -19.5 48.5t-45.5 21.5h-62q-35 0 -35 29q0 10 10.5 19t24.5 9h127v121q0 139 100.5 237.5t237.5 98.5q14 0 24.5 -9t10.5 -20q0 -14 -10.5 -24t-24.5 -10z" />
<glyph unicode="g" horiz-adv-x="1251" d="M1038 -901h-63v1153q-104 -109 -228 -179.5t-227 -70.5q-215 0 -364.5 144.5t-149.5 353.5t149.5 353t364.5 144q240 0 455 -256v256h194q35 0 35 -28q0 -31 -35 -31h-43q-31 0 -45 -2t-28.5 -13.5t-14.5 -35.5v-1788zM520 63q186 0 320.5 129.5t134.5 307.5t-134 308 t-321 130q-180 0 -314 -130t-134 -308t134 -307.5t314 -129.5z" />
<glyph unicode="h" horiz-adv-x="1372" d="M1300 123q27 0 27 -35q0 -27 -27 -27h-196v465q0 184 -127 311.5t-311 127.5q-180 0 -308.5 -128t-128.5 -311v-465h-190q-31 0 -31 27q0 35 31 35h65q31 0 48.5 17.5t17.5 43.5v1141q0 63 -66 64h-65q-31 0 -31 28q0 35 31 35h190v-672q221 246 437 246 q207 0 353 -146.5t146 -353.5v-342q0 -27 18.5 -44t47.5 -17h69z" />
<glyph unicode="i" horiz-adv-x="471" d="M375 123q10 0 19 -10.5t9 -24.5q0 -27 -28 -27h-330q-27 0 -27 27q0 14 8.5 24.5t18.5 10.5h70q29 0 48 17.5t19 43.5v682q0 70 -71 70h-66q-12 0 -21.5 8t-9.5 21q0 10 10.5 21t20.5 11h199v-813q0 -25 18.5 -43t42.5 -18h70zM176 1356q-23 0 -39 18.5t-16 43t16.5 43 t38.5 18.5q29 0 48.5 -18.5t19.5 -43t-19.5 -43t-48.5 -18.5z" />
<glyph unicode="j" horiz-adv-x="528" d="M238 -901h-62v1773q0 29 -18.5 47.5t-46.5 18.5h-70q-10 0 -18.5 9t-8.5 22q0 10 8.5 20t18.5 10h330q10 0 20 -10t10 -20q0 -12 -10 -21.5t-20 -9.5h-70q-27 0 -45 -19.5t-18 -46.5v-1773zM194.5 1358q-24.5 0 -43 18.5t-18.5 43t18.5 43t43 18.5t43 -18.5t18.5 -43 t-18.5 -43t-43 -18.5z" />
<glyph unicode="k" horiz-adv-x="1114" d="M424 649l401 -399l52 -60l18 -20q4 -4 31 -23l-6 3q33 -27 84 -27h26q14 0 24.5 -10.5t10.5 -20.5q0 -31 -35 -31h-110l-29 29l-70 68q-41 37 -65 67l-375 377l-150 -151v-390h-192q-31 0 -31 27q0 14 9.5 24.5t21.5 10.5h65q29 0 47.5 17.5t18.5 43.5v1141 q0 31 -18.5 47.5t-47.5 16.5h-65q-12 0 -21.5 10t-9.5 22.5t9.5 21.5t21.5 9h192v-909l375 379l78 77h109q14 0 24 -10t10 -22q0 -29 -34 -29h-27q-39 0 -68 -23z" />
<glyph unicode="l" horiz-adv-x="466" d="M371 123q10 0 20 -11.5t10 -23.5q0 -27 -30 -27h-330q-27 0 -27 27q0 12 8.5 23.5t18.5 11.5h65q33 0 51.5 17.5t18.5 43.5v1139q0 63 -70 63h-65q-10 0 -18.5 10.5t-8.5 23t8.5 21.5t18.5 9h197v-1266q0 -27 18 -44t45 -17h70z" />
<glyph unicode="m" horiz-adv-x="1900" d="M1843 125q27 0 27 -35q0 -27 -27 -27h-196v627q0 117 -80 197t-197 80q-166 0 -284.5 -119t-118.5 -285v-495h-62v622q0 117 -78.5 197t-195.5 80q-170 0 -288 -119t-118 -285v-500h-196q-25 0 -25 31t25 31h71q61 0 62 61v676q0 70 -62 70h-71q-25 0 -25 30.5t25 30.5 h196v-188q203 223 406 223q98 0 186 -66.5t141 -177.5q182 244 412 244q139 0 238.5 -100.5t99.5 -237.5v-504q0 -27 18.5 -44t47.5 -17h69z" />
<glyph unicode="n" horiz-adv-x="1372" d="M1300 123q10 0 18.5 -11.5t8.5 -23.5q0 -27 -27 -27h-196v441q0 180 -127 307t-311 127q-180 0 -308.5 -127t-128.5 -307v-439h-190q-31 0 -31 27q0 35 31 35h65q31 0 48.5 17.5t17.5 43.5v684q0 29 -17.5 47.5t-48.5 18.5h-65q-31 0 -31 29q0 33 31 32h190v-235 q100 100 220 167.5t217 67.5q207 0 353 -145t146 -350v-318q0 -27 18.5 -44t47.5 -17h69z" />
<glyph unicode="o" horiz-adv-x="1122" d="M539 1061q221 0 377.5 -155.5t156.5 -375t-156.5 -375t-377.5 -155.5q-219 0 -375 155.5t-156 375t156 375t375 155.5zM538.5 61q194.5 0 334 137.5t139.5 332t-139.5 332.5t-334 138t-331.5 -138t-137 -332.5t137 -332t331.5 -137.5z" />
<glyph unicode="p" d="M676 997q209 0 354.5 -144t145.5 -351q0 -209 -145.5 -354.5t-354.5 -145.5q-115 0 -230.5 65.5t-212.5 186.5v-1155h-61v1767q0 70 -70 70h-61q-12 0 -23.5 8t-11.5 21q0 10 11.5 21t23.5 11h192v-249q100 115 217 182t226 67zM676 63q182 0 311 128t129 311 q0 180 -129 307t-311 127q-178 0 -305 -127t-127 -307q0 -182 127 -310.5t305 -128.5z" />
<glyph unicode="q" horiz-adv-x="1222" d="M1272 -672q25 0 24 -30q0 -35 -24 -35h-31q-35 0 -52.5 -6.5t-37.5 -30.5q2 4 0 4l-59 -64h2l-68 -67h-78v1153q-102 -113 -220 -181.5t-224 -68.5q-207 0 -351.5 145.5t-144.5 354.5q0 207 145.5 351t350.5 144q115 0 231.5 -65.5t212.5 -186.5v252h195q27 0 26 -32 q0 -29 -26 -29h-70q-61 0 -61 -70v-1689l149 151h111zM504 63q182 0 310 128t128 311q0 180 -128 307t-310 127t-310 -127t-128 -307q0 -182 128 -310.5t310 -128.5z" />
<glyph unicode="r" horiz-adv-x="1028" d="M641 999q127 0 223.5 -93t106.5 -226h-56q-12 111 -89.5 184.5t-184.5 73.5q-168 0 -288 -119t-120 -284v-474h-190q-33 0 -33 27q0 14 9.5 24.5t23.5 10.5h63q27 0 48.5 18.5t21.5 42.5v686q0 27 -21.5 46.5t-48.5 19.5h-63q-14 0 -23.5 10t-9.5 23q0 10 9.5 19t23.5 9 h190v-217q199 219 408 219z" />
<glyph unicode="s" horiz-adv-x="743" d="M584 977v-240h-62q-10 100 -65.5 164t-143.5 64q-104 -2 -172.5 -59.5t-68.5 -152t86 -153.5t192 -59q129 0 230.5 -76t101.5 -193q0 -121 -88 -196.5t-215 -75.5h-96q-98 0 -203 86q-14 -68 -37 -68q-33 0 -33 25v240h64q8 -98 64.5 -161t144.5 -63h96q106 0 176 57.5 t70 155.5q0 94 -84 150.5t-191 56.5q-135 0 -237.5 78t-102.5 196.5t87 194.5t216 78q88 -2 193 -78q25 59 47 60q12 0 21.5 -9.5t9.5 -21.5z" />
<glyph unicode="t" horiz-adv-x="561" d="M238 399q0 -106 74.5 -183t183.5 -91v-62q-133 16 -226.5 111.5t-93.5 224.5v475q0 27 -18.5 46.5t-46.5 19.5h-62q-37 0 -37 29q0 33 37 32h127v449h62v-449h227q10 0 20.5 -9t10.5 -23q0 -12 -9.5 -20.5t-21.5 -8.5h-158q-33 0 -51 -18.5t-18 -47.5v-475z" />
<glyph unicode="u" horiz-adv-x="1372" d="M1300 127q27 0 27 -35q0 -27 -27 -26h-196v176q-96 -113 -213 -177.5t-225 -64.5q-203 0 -349.5 145.5t-146.5 354.5v368q0 29 -18.5 49.5t-47.5 20.5h-65q-31 0 -31 28.5t31 28.5h190v-495q0 -182 128 -310.5t309 -128.5q184 0 311 127t127 312v495h196q10 0 18.5 -9 t8.5 -19q0 -29 -27 -29h-69q-27 0 -46.5 -21.5t-19.5 -48.5v-680q0 -27 18.5 -44t47.5 -17h69z" />
<glyph unicode="v" horiz-adv-x="1286" d="M1206 1001q35 0 35 -30q0 -12 -10 -21.5t-25 -9.5h-26q-68 0 -88 -41v2l-43 -78l-390 -719l-36 -86l-33 76q-6 14 -87 162l-177 325q-96 177 -136 257l-12 18l-6 10l-16 29q-29 41 -88 41h-31q-12 0 -21.5 9t-9.5 24q0 10 9.5 19t21.5 9h143l37 -79l217 -394l189 -342 l204 373l203 375l31 71h145z" />
<glyph unicode="w" horiz-adv-x="1900" d="M1843 995q10 0 18.5 -10t8.5 -22q0 -29 -27 -29h-69q-29 0 -47.5 -19.5t-18.5 -50.5v-399q0 -193 -136 -329t-329 -136q-98 0 -188 65.5t-144 172.5q-82 -113 -189.5 -175.5t-217.5 -62.5q-143 0 -242.5 99.5t-99.5 238.5v526q0 70 -62 70h-71q-25 0 -25 29q0 33 25 32 h196v-657q0 -117 81 -197t198 -80q166 0 283.5 119t117.5 285v530h62v-657q0 -117 79.5 -197t196.5 -80q168 0 286 119t118 285v530h196z" />
<glyph unicode="x" horiz-adv-x="892" d="M803 123q12 0 22.5 -10.5t10.5 -20.5q0 -31 -33 -31h-139l-39 86l-205 326l-72 -117q-6 -8 -19.5 -29.5t-17.5 -25.5q-57 -96 -88 -164l-20 -39l-6 -14l-13 -23h-145q-27 0 -27 31q0 10 8.5 20.5t18.5 10.5h31q70 0 96 39l29 55l196 313l-74 119l-104 166l-6 10l2 -10 l-4 21l-19 18l9 -6l-25 35q-29 43 -92 43h-27q-12 0 -21.5 10t-9.5 25q0 10 10.5 18t20.5 8h144l55 -121l174 -280l166 260l55 96l29 45l127 4q10 0 18 -10t8 -20q0 -12 -8 -21.5t-18 -9.5h-31h-2q-2 -2 -4 -2h-16q-31 0 -72 -41q-4 -8 -35 -60l-25 -36l2 2l-98 -158l2 2 l-28 -45l-35 -64l47 -75q102 -166 141 -238q29 -49 37 -57q25 -35 94 -35h25zM172 879q-2 0 -2 4l4 -17z" />
<glyph unicode="y" horiz-adv-x="1380" d="M1167 -901h-61v1149q-96 -113 -212 -177.5t-224 -64.5q-209 0 -356.5 146.5t-147.5 355.5v358q0 70 -62 70h-69q-27 0 -27 31q0 33 27 32h196v-491q0 -184 127 -312t312 -128q182 0 309 129t127 311v491h197q12 0 22 -10t10 -22.5t-9 -21.5t-23 -9h-66q-70 0 -70 -70 v-1767z" />
<glyph unicode="z" horiz-adv-x="724" d="M633 281q31 0 31 -27v-193h-644q10 16 21 36l18 34l490 799h-412q-27 0 -46 -18.5t-19 -47.5v-67q0 -29 -27 -29q-14 0 -24.5 9t-10.5 20v194h633l-41 -71l-471 -797h406q27 0 48 18.5t21 42.5v70q0 27 27 27z" />
<glyph unicode="{" horiz-adv-x="573" d="M104 664v6q0 -2 1 -2t1 -2zM168 514q0 84 -62 152q61 68 62 155q0 94 -72 166q-84 76 -84 207q0 123 84 207q82 82 211 82q102 0 193 -72l-41 -41q-72 57 -152 57q-102 0 -166 -69h2q-74 -70 -73.5 -164t73.5 -164h-2q84 -94 84 -209q0 -74 -47 -153q47 -80 47 -154 q0 -121 -82 -205q-74 -74 -73 -164q0 -98 73 -168q70 -70 164 -69q80 0 154 61l41 -43q-86 -76 -195 -76q-127 0 -211 84t-84 211q0 113 86 205h-2q72 72 72 164z" />
<glyph unicode="|" horiz-adv-x="155" d="M16 -227v1849h62v-1849h-62z" />
<glyph unicode="}" horiz-adv-x="573" d="M352 821q0 -86 60 -155q-59 -66 -60 -152q0 -90 74 -164h-4q86 -96 86 -205q0 -111 -82 -208q-92 -86 -213 -87q-111 0 -197 74q31 31 47 45q74 -61 150 -61q100 0 168 72q70 70 70 165q0 92 -72 164q-84 84 -84 205q0 72 49 154q-49 82 -49 153q0 117 86 209h-2 q72 68 72 164t-72 164h2q-63 70 -168 69q-82 0 -154 -57l-43 41q82 72 197 72q119 0 213 -84q82 -92 82 -205q0 -121 -86 -207h4q-74 -74 -74 -166zM416 664v6l-4 -4q2 0 2 -1t2 -1z" />
<glyph unicode="~" horiz-adv-x="843" d="M737 549l43 -41q-86 -74 -198 -74q-125 0 -205 84q-82 72 -164 72t-154 -62l-43 41q84 78 197 78q111 0 205 -90q72 -66 164 -65q85 0 155 57z" />
<glyph unicode="&#xa1;" horiz-adv-x="212" d="M104 -483h-61v1253h61v-1253zM75.5 952q-24.5 0 -43 18.5t-18.5 43t18.5 43t43 18.5t43 -18.5t18.5 -43t-18.5 -43t-43 -18.5z" />
<glyph unicode="&#xa2;" horiz-adv-x="968" d="M526 993v-944q199 10 336 131q8 -8 47 -43q-160 -139 -383 -149v-228h-63v236q-176 33 -295 151q-158 152 -158 375q0 221 158 377q123 119 295 152v223h63v-219q207 -6 383 -146l-47 -45q-141 123 -336 129zM213 190v-2q98 -90 250 -131v934q-162 -55 -250 -141 q-141 -145 -141 -328q0 -187 141 -332z" />
<glyph unicode="&#xa3;" horiz-adv-x="843" d="M735 123l45 -41q-88 -74 -198 -74q-127 0 -205 84q-76 72 -164 72q-86 0 -152 -60l-41 46q59 49 150 73v647q0 29 -15.5 49.5t-45.5 20.5h-66q-31 0 -31 29q0 10 9.5 19t21.5 9h127v121q0 139 100.5 237.5t241.5 98.5q12 0 21.5 -9t9.5 -20q0 -14 -9.5 -24t-21.5 -10 q-115 0 -197 -80t-82 -193v-121h232q10 0 19.5 -9t9.5 -19q0 -12 -9.5 -20.5t-19.5 -8.5h-162q-70 0 -70 -70v-647q115 -23 185 -88v2q76 -72 164 -71q79 0 153 57z" />
<glyph unicode="&#xa5;" horiz-adv-x="1173" d="M1094 1450q29 0 28.5 -30.5t-28.5 -30.5h-99q-8 -12 -28.5 -49t-28.5 -50l-76 -119l-41 -69l-35 -51l-192 -312v-147h229v-62h-229v-149h229v-62h-229v-190q0 -31 18.5 -49.5t46.5 -18.5h70q27 0 27 -28q0 -10 -8.5 -20.5t-18.5 -10.5h-323q-12 0 -21.5 10.5t-9.5 20.5 q0 29 31 28h65q27 0 45.5 18.5t18.5 49.5v190h-201v62h201v149h-201v62h201v123l-15 26l-188 322l-92 154l-105 169h-96q-12 0 -21.5 9.5t-9.5 22t9.5 21.5t21.5 9h141l58 -123l325 -539l228 365l102 162l45 82l16 32l13 23h127z" />
<glyph unicode="&#xa6;" horiz-adv-x="155" d="M16 653v813h62v-813h-62zM16 -385v811h62v-811h-62z" />
<glyph unicode="&#xa7;" horiz-adv-x="995" d="M899 598v-47q41 -92 41 -184v-64q0 -190 -137 -328.5t-327.5 -138.5t-328 138.5t-137.5 328.5v45h60v-45q0 -74 24 -137v2q37 -119 143.5 -195.5t237.5 -76.5q170 0 287 118.5t117 288.5v64q0 80 -43 170q-45 74 -126 123t-169 49h-166q-127 0 -217 89t-90 212q0 37 8 71 q-47 78 -47 162q0 141 98 241.5t235 100.5q115 0 277 -133v113h195q29 0 28 -33q0 -29 -28 -29h-66q-31 0 -49.5 -18.5t-18.5 -48.5v-174h-61q0 20 -6 41v-3q-18 94 -94 158t-177 64q-115 0 -193.5 -81t-78.5 -198q0 -29 2 -41q10 -51 55 -125q84 -76 183 -76h168 q164 0 282.5 -119.5t118.5 -283.5zM541 770q115 0 313 -131q-66 139 -161 220t-195 81h-168q-78 0 -224 86q43 -111 119 -183.5t150 -72.5h166z" />
<glyph unicode="&#xa8;" horiz-adv-x="464" d="M41 1307q12 0 21.5 -9.5t9.5 -19.5q0 -27 -31 -27q-27 0 -27 27q0 10 8.5 19.5t18.5 9.5zM368.5 1307q12.5 0 21.5 -9.5t9 -19.5q0 -27 -30 -27q-29 0 -29 27q0 10 8 19.5t20.5 9.5z" />
<glyph unicode="&#xa9;" horiz-adv-x="1122" d="M377 981q0 -61 43 -104q43 -61 123 -62q53 0 121 55q12 -16 36 -34q-80 -68 -157 -68q-96 0 -154 66q-61 55 -61 147q0 90 63 156h-2q61 63 154 63q82 0 159 -65l-36 -39q-68 53 -123 53q-74 0 -117 -47h2q-51 -51 -51 -121zM430 868l-12 13q0 -2 2 -4zM539 1511 q221 0 377.5 -154.5t156.5 -375.5q0 -215 -156.5 -369.5t-377.5 -154.5q-217 0 -374 154.5t-157 369.5q0 221 156 375.5t375 154.5zM538.5 518q196.5 0 335 134t138.5 329q0 197 -138.5 335t-334.5 138q-195 0 -332 -137t-137 -336q0 -195 136 -329t332.5 -134z" />
<glyph unicode="&#xaa;" horiz-adv-x="552" d="M426 940l35 -35q10 0 18 -9t8 -19q0 -23 -26 -23h-129q-72 -27 -115 -27q-84 0 -143.5 60.5t-59.5 144.5t59.5 142.5t143.5 58.5q41 0 158 -53v55h86q27 0 26 -23q0 -27 -61 -26v-246zM217 879q66 0 110 44t44 109q0 63 -44 107.5t-110 44.5q-59 0 -106.5 -45t-47.5 -107 q0 -63 47.5 -108t106.5 -45z" />
<glyph unicode="&#xab;" horiz-adv-x="520" d="M213 745l45 -43l-154 -147l156 -156l-47 -47l-195 199zM403 743l43 -41l-153 -147l156 -156l-46 -45l-192 197z" />
<glyph unicode="&#xac;" horiz-adv-x="729" d="M606 508h-596v61h658v-270h-62v209z" />
<glyph unicode="&#xad;" horiz-adv-x="0" />
<glyph unicode="&#xae;" horiz-adv-x="1122" d="M807 1071q0 -63 -50 -120.5t-124 -88.5l59 -131q51 0 51 -24q0 -23 -20 -23h-64l-79 182q-41 8 -131 52v-224h-89q-8 0 -15 7.5t-7 15.5q0 27 57 26l4 480q-61 0 -61 24q0 8 7 17.5t15 9.5h48q8 0 41 -4v-47q111 51 153 51q82 0 143.5 -60.5t61.5 -142.5zM449 1305v-35 h34zM602 918q66 0 110 44t44 109q0 63 -45 107.5t-108.5 44.5t-108.5 -44t-45 -108q0 -53 34.5 -95t83.5 -50l-4 2q21 -10 39 -10zM539 1511q221 0 377.5 -154.5t156.5 -375.5q0 -215 -156.5 -369.5t-377.5 -154.5q-217 0 -374 154.5t-157 369.5q0 221 156 375.5t375 154.5z M538.5 518q196.5 0 335 134t138.5 329q0 197 -138.5 335t-334.5 138q-195 0 -332 -137t-137 -336q0 -195 136 -329t332.5 -134z" />
<glyph unicode="&#xaf;" horiz-adv-x="483" d="M414 1290v-57h-400v57h400z" />
<glyph unicode="&#xb0;" horiz-adv-x="311" d="M129 1333q45 0 77 -32.5t32 -77.5q0 -47 -32 -79t-77 -32q-47 0 -79 32t-32 79q0 45 33 77.5t78 32.5zM129 1157q25 0 43 19.5t18 46.5q0 25 -18 43t-43 18q-29 0 -46 -17.5t-17 -43.5q0 -29 17 -47.5t46 -18.5z" />
<glyph unicode="&#xb1;" horiz-adv-x="567" d="M502 96h-488v-49h488v49zM502 565v-61h-213v-213h-64v213h-213v61h213v215h64v-215h213z" />
<glyph unicode="&#xb2;" horiz-adv-x="489" d="M385 1112q20 0 21 -25v-83h-369l311 348h-2q27 31 27 63.5t-23 59.5q-49 55 -119 55q-57 0 -120 -57l-33 32q80 72 153 72q86 0 154 -68q35 -35 35 -94q0 -43 -37 -100l2 4l-246 -272l217 16q4 49 29 49z" />
<glyph unicode="&#xb3;" horiz-adv-x="411" d="M305 1399q0 -37 -49 -99q86 -74 86 -143v-27q0 -74 -57.5 -130t-132.5 -56q-51 0 -127 53q10 10 19 21.5t11 13.5q61 -39 97 -39q53 0 98 44t45 93v27q0 41 -36 70.5t-85 42.5v55q82 20 82 74q0 41 -27.5 66.5t-64.5 25.5q-57 0 -98 -33l-29 39q70 41 127 41 q59 0 100 -41t41 -98z" />
<glyph unicode="&#xb4;" horiz-adv-x="393" d="M276 1372l43 -41l-258 -258l-41 43z" />
<glyph unicode="&#xb5;" horiz-adv-x="1372" d="M170 -901v1769q0 29 -18.5 49.5t-47.5 20.5h-65q-31 0 -31 28.5t31 28.5h190v-495q0 -182 128 -310.5t309 -128.5q184 0 311 127t127 312v495h196q10 0 18.5 -9t8.5 -19q0 -29 -27 -29h-69q-27 0 -46.5 -21.5t-19.5 -48.5v-680q0 -27 18.5 -44t47.5 -17h69q27 0 27 -35 q0 -27 -27 -26h-196v176q-96 -113 -213 -177.5t-225 -64.5q-225 0 -437 244v-1145h-59z" />
<glyph unicode="&#x3bc;" horiz-adv-x="1372" d="M170 -901v1769q0 29 -18.5 49.5t-47.5 20.5h-65q-31 0 -31 28.5t31 28.5h190v-495q0 -182 128 -310.5t309 -128.5q184 0 311 127t127 312v495h196q10 0 18.5 -9t8.5 -19q0 -29 -27 -29h-69q-27 0 -46.5 -21.5t-19.5 -48.5v-680q0 -27 18.5 -44t47.5 -17h69q27 0 27 -35 q0 -27 -27 -26h-196v176q-96 -113 -213 -177.5t-225 -64.5q-225 0 -437 244v-1145h-59z" />
<glyph unicode="&#xb6;" horiz-adv-x="1394" d="M504 1448h819q10 0 19.5 -9t9.5 -21.5t-9.5 -22t-19.5 -9.5h-68q-66 0 -65 -65v-1194q0 -29 18.5 -47.5t46.5 -18.5h68q10 0 19.5 -9t9.5 -19q0 -14 -9.5 -23.5t-19.5 -9.5h-195v1386h-63q-29 0 -47.5 -17t-18.5 -48v-1321h-59v696q-211 -238 -436 -237 q-205 0 -350.5 144.5t-145.5 348.5q0 203 145.5 349.5t350.5 146.5z" />
<glyph unicode="&#xb7;" horiz-adv-x="212" d="M80 483q-27 0 -46.5 19.5t-19.5 48.5q0 25 19.5 43t46.5 18q23 0 40 -19.5t17 -41.5q0 -27 -17 -47.5t-40 -20.5z" />
<glyph unicode="&#xb8;" horiz-adv-x="327" d="M133 -94q47 0 83 -26.5t38 -74.5q0 -47 -31 -73h2q-33 -27 -82 -27h-26q-51 0 -74 33l2 -2q-27 39 -27 80v14h70q-68 84 -70 121v14h54v-28q30 -31 61 -31zM18 -135l-34 -35h34v35zM147 -242q39 4 60 62q-47 31 -74 30h-72q16 -78 56 -92h30z" />
<glyph unicode="&#xb9;" horiz-adv-x="292" d="M162 1565v-529q59 -4 59 -28q0 -20 -31 -21h-106q-33 0 -33 21q0 23 64 30v109q0 12 -1 38.5t-1 41.5q-2 47 -2 192h-64q-29 0 -29 25q0 27 43 26q5 5 101 95z" />
<glyph unicode="&#xba;" horiz-adv-x="516" d="M231.5 1235q90.5 0 154 -62.5t63.5 -150.5t-63.5 -150.5t-154 -62.5t-154 62.5t-63.5 150.5t63.5 150.5t154 62.5zM231.5 856q69.5 0 117.5 49t48 117q0 70 -48 119t-117.5 49t-119 -49t-49.5 -119q0 -68 49.5 -117t119 -49z" />
<glyph unicode="&#xbb;" horiz-adv-x="520" d="M213 702l43 43l63 -64l67 -68l63 -60l-193 -199l-45 45l154 156zM20 702l39 43l201 -192l-199 -199l-43 45l156 156z" />
<glyph unicode="&#xbc;" horiz-adv-x="2000" d="M1907 121q33 0 33 -31q0 -29 -33 -29h-182v764h-539v72l531 500l69 67v-579h127v-60h-127v-626q0 -33 22.5 -55.5t55.5 -22.5h43zM1287 885h438v436zM1106 1583l-479 -1792l-62 16l480 1790zM440 121q45 0 45 -33q0 -27 -45 -27h-284q-47 0 -47 27q0 33 47 33h39 q55 0 64 9t9 69v1122l-116 -115h-95q-43 0 -43 25q0 33 43 33h70l201 200v-1265q0 -57 11 -67.5t69 -10.5h32z" />
<glyph unicode="&#xbd;" horiz-adv-x="2154" d="M2038 276q31 0 31 -32v-183h-864l768 865q76 76 75 180q0 109 -77 186q-145 150 -330 150q-160 0 -313 -137l-45 43q166 147 358 147q203 0 369 -160v2q88 -88 88 -231q0 -131 -90 -227l-252 -289v2l-152 -176l-254 -295h578q31 0 56.5 23.5t25.5 54.5v45q-1 32 28 32z M1106 1583l-479 -1792l-62 16l480 1790zM440 121q45 0 45 -33q0 -27 -45 -27h-284q-47 0 -47 27q0 33 47 33h39q55 0 64 9t9 69v1122l-116 -115h-95q-43 0 -43 25q0 33 43 33h70l201 200v-1265q0 -57 11 -67.5t69 -10.5h32z" />
<glyph unicode="&#xbe;" horiz-adv-x="2277" d="M2183 121q33 0 33 -31q0 -29 -33 -29h-182v764h-539v72l531 500l69 67v-579h127v-60h-127v-626q0 -33 22.5 -55.5t55.5 -22.5h43zM1563 885h438v436zM1382 1583l-479 -1792l-62 16l480 1790zM672 1155q0 -59 -46 -126.5t-126 -125.5q123 -61 194.5 -166.5t71.5 -214.5 v-65q0 -182 -136 -319.5t-319 -137.5q-139 0 -291 113l37 37q133 -90 254 -91q150 0 274 125t124 273v65q0 135 -94.5 227.5t-223.5 104.5v66q84 20 153.5 86.5t69.5 148.5q0 121 -81.5 196.5t-188.5 75.5q-168 0 -256 -69l-41 45q133 82 297 82q133 0 230.5 -97.5 t97.5 -232.5z" />
<glyph unicode="&#xbf;" horiz-adv-x="1013" d="M485 -543q-195 2 -334 140.5t-141 334.5q2 203 114 339.5t302 136.5q121 0 188.5 85t75.5 224q14 0 29.5 -1t21.5 -1q-12 -160 -94 -262.5t-221 -100.5q-170 -2 -266.5 -119.5t-91.5 -300.5q-2 -172 121.5 -293.5t295.5 -119.5q156 -2 275 115.5t139 279.5q14 0 32.5 1 t24.5 1q-16 -190 -151.5 -323.5t-319.5 -135.5zM715 907q-23 0 -39.5 17.5t-16.5 40.5q2 25 18.5 43t37.5 18q25 0 43 -18.5t18 -41t-18 -41t-43 -18.5z" />
<glyph unicode="&#xc0;" horiz-adv-x="1431" d="M1348 57q31 0 30 -26q0 -12 -9 -21.5t-21 -9.5h-129l-68 172l-240 649h-440l-240 -651l-61 -170h-127q-14 0 -23.5 9t-9.5 22q0 27 33 26h53l31 4q14 51 27 70l10 25l233 641l37 92l191 524q4 14 15 41t15 41h76l33 -84v2l190 -524l35 -92l264 -721q25 -18 35 -19h60z M494 879h397l-199 544zM575 1821l46 43l249 -252l-43 -43z" />
<glyph unicode="&#xc1;" horiz-adv-x="1431" d="M1348 57q31 0 30 -26q0 -12 -9 -21.5t-21 -9.5h-129l-68 172l-240 649h-440l-240 -651l-61 -170h-127q-14 0 -23.5 9t-9.5 22q0 27 33 26h53l31 4q14 51 27 70l10 25l233 641l37 92l191 524q4 14 15 41t15 41h76l33 -84v2l190 -524l35 -92l264 -721q25 -18 35 -19h60z M494 879h397l-199 544zM821 1868l43 -41l-258 -258l-41 43z" />
<glyph unicode="&#xc2;" horiz-adv-x="1431" d="M1348 57q31 0 30 -26q0 -12 -9 -21.5t-21 -9.5h-129l-68 172l-240 649h-440l-240 -651l-61 -170h-127q-14 0 -23.5 9t-9.5 22q0 27 33 26h53l31 4q14 51 27 70l10 25l233 641l37 92l191 524q4 14 15 41t15 41h76l33 -84v2l190 -524l35 -92l264 -721q25 -18 35 -19h60z M494 879h397l-199 544zM854 1757l-41 -41l-88 86l-88 -88l-43 43l131 129z" />
<glyph unicode="&#xc3;" horiz-adv-x="1431" d="M1348 57q31 0 30 -26q0 -12 -9 -21.5t-21 -9.5h-129l-68 172l-240 649h-440l-240 -651l-61 -170h-127q-14 0 -23.5 9t-9.5 22q0 27 33 26h53l31 4q14 51 27 70l10 25l233 641l37 92l191 524q4 14 15 41t15 41h76l33 -84v2l190 -524l35 -92l264 -721q25 -18 35 -19h60z M494 879h397l-199 544zM1057 1743l45 -45q-84 -70 -197 -70q-121 0 -205 84q-82 68 -161 68q-82 0 -150 -60l-43 43q94 72 193 72q113 0 206 -84v2q74 -70 160 -69.5t152 59.5z" />
<glyph unicode="&#xc4;" horiz-adv-x="1431" d="M1348 57q31 0 30 -26q0 -12 -9 -21.5t-21 -9.5h-129l-68 172l-240 649h-440l-240 -651l-61 -170h-127q-14 0 -23.5 9t-9.5 22q0 27 33 26h53l31 4q14 51 27 70l10 25l233 641l37 92l191 524q4 14 15 41t15 41h76l33 -84v2l190 -524l35 -92l264 -721q25 -18 35 -19h60z M494 879h397l-199 544zM565 1794q29 0 29 -22q0 -31 -29 -31q-12 0 -21 9t-9 22q-1 22 30 22zM885 1794q29 0 28 -22q0 -31 -28 -31q-27 0 -27 31q0 22 27 22z" />
<glyph unicode="&#xc5;" horiz-adv-x="1431" d="M1348 57q31 0 30 -26q0 -12 -9 -21.5t-21 -9.5h-129l-68 172l-240 649h-440l-240 -651l-61 -170h-127q-14 0 -23.5 9t-9.5 22q0 27 33 26h53l31 4q14 51 27 70l10 25l233 641l37 92l191 524q4 14 15 41t15 41h76l33 -84v2l190 -524l35 -92l264 -721q25 -18 35 -19h60z M494 879h397l-199 544zM723 1823q47 0 79 -32t32 -77q0 -47 -32 -78.5t-79 -31.5q-45 0 -77 31.5t-32 78.5q0 45 32 77t77 32zM723 1649q27 0 46 19.5t19 46t-19 45t-46 18.5q-29 0 -45 -18.5t-16 -45.5q0 -29 16 -47t45 -18z" />
<glyph unicode="&#xc6;" horiz-adv-x="2453" d="M1339 57q12 0 22.5 -8t10.5 -18q0 -12 -10 -21.5t-23 -9.5h-129q-10 29 -31.5 83t-33.5 89v-2l-238 651h-440l-240 -649l-63 -172h-129q-12 0 -22.5 9t-10.5 22q0 10 10.5 18t22.5 8h57v70q12 0 28.5 -1t20.5 -1l17 33l233 639l35 92l192 524v-2l29 84h78l33 -84v2 l190 -524l33 -92l74 -201l200 -537zM2417 1432v-191q0 -29 -29 -29q-31 0 -31 29v66q0 29 -18.5 46t-48.5 17h-602v-463h516q31 0 49 18.5t18 47.5v65q0 29 29 29q10 0 19.5 -8t9.5 -21v-323q0 -10 -9.5 -19.5t-19.5 -9.5q-29 0 -29 29v67q0 66 -67 66h-516v-791h602 q31 0 49 19.5t18 48.5v65q0 12 9.5 22.5t21.5 10.5t20.5 -10t8.5 -23v-190h-920q-27 0 -27 33q0 10 8.5 17t18.5 7h68q27 0 45 19.5t18 48.5v1182q0 29 -17.5 46t-45.5 17h-68q-10 0 -18.5 10.5t-8.5 22.5q0 10 8.5 19.5t18.5 9.5h920zM487 879h400l-199 544l-98 -264 q-35 -87 -103 -280z" />
<glyph unicode="&#xc7;" horiz-adv-x="1060" d="M506 12q174 0 299 119t135 295h57q-10 -174 -125.5 -305t-287.5 -168l2 -64q47 -8 78.5 -34.5t33.5 -67.5q0 -37 -30 -72q-49 -27 -82 -26h-31q-43 0 -68 28q-29 37 -28 82v13h82q-78 78 -84 137q-193 29 -320 169t-127 328v558q0 203 145.5 348t350.5 145 q125 0 234.5 -62.5t185.5 -170.5q35 27 41 26q14 0 23 -10t9 -23v-4l-2 -4l2 -8v-219h-59q-10 176 -135 296t-299 120q-180 0 -306 -126t-126 -308v-558q0 -182 126 -308t306 -126zM1034 426l-35 35q0 -25 -2 -35h37zM590 -256q25 2 36 15.5t21 43.5q-45 29 -69 29h-76 q18 -76 53 -88h35z" />
<glyph unicode="&#xc8;" horiz-adv-x="1021" d="M958 1432v-191q0 -12 -9 -20.5t-19 -8.5q-29 0 -29 29v66q0 29 -17.5 46t-47.5 17h-603v-463h512q31 0 48.5 18.5t17.5 47.5v65q0 12 10 20.5t22.5 8.5t21.5 -8t9 -21v-323q0 -10 -10 -19.5t-20 -9.5q-12 0 -22.5 9.5t-10.5 19.5v67q0 66 -66 66h-512v-791h603 q31 0 48 19.5t17 48.5v65q0 12 8.5 22.5t20.5 10.5q10 0 19 -10t9 -23v-190h-915q-33 0 -33 33q0 25 33 24h66q29 0 46 19.5t17 48.5v1182q0 29 -17.5 46t-45.5 17h-66q-14 0 -23.5 10.5t-9.5 22.5q0 10 9.5 19.5t23.5 9.5h915zM371 1821l43 43l252 -252l-45 -43z" />
<glyph unicode="&#xc9;" horiz-adv-x="1021" d="M958 1432v-191q0 -12 -9 -20.5t-19 -8.5q-29 0 -29 29v66q0 29 -17.5 46t-47.5 17h-603v-463h512q31 0 48.5 18.5t17.5 47.5v65q0 12 10 20.5t22.5 8.5t21.5 -8t9 -21v-323q0 -10 -10 -19.5t-20 -9.5q-12 0 -22.5 9.5t-10.5 19.5v67q0 66 -66 66h-512v-791h603 q31 0 48 19.5t17 48.5v65q0 12 8.5 22.5t20.5 10.5q10 0 19 -10t9 -23v-190h-915q-33 0 -33 33q0 25 33 24h66q29 0 46 19.5t17 48.5v1182q0 29 -17.5 46t-45.5 17h-66q-14 0 -23.5 10.5t-9.5 22.5q0 10 9.5 19.5t23.5 9.5h915zM616 1868l43 -41l-258 -258l-41 43z" />
<glyph unicode="&#xca;" horiz-adv-x="1021" d="M958 1432v-191q0 -12 -9 -20.5t-19 -8.5q-29 0 -29 29v66q0 29 -17.5 46t-47.5 17h-603v-463h512q31 0 48.5 18.5t17.5 47.5v65q0 12 10 20.5t22.5 8.5t21.5 -8t9 -21v-323q0 -10 -10 -19.5t-20 -9.5q-12 0 -22.5 9.5t-10.5 19.5v67q0 66 -66 66h-512v-791h603 q31 0 48 19.5t17 48.5v65q0 12 8.5 22.5t20.5 10.5q10 0 19 -10t9 -23v-190h-915q-33 0 -33 33q0 25 33 24h66q29 0 46 19.5t17 48.5v1182q0 29 -17.5 46t-45.5 17h-66q-14 0 -23.5 10.5t-9.5 22.5q0 10 9.5 19.5t23.5 9.5h915zM649 1757l-43 -43l-84 90l-92 -92l-43 41 l133 133z" />
<glyph unicode="&#xcb;" horiz-adv-x="1021" d="M958 1432v-191q0 -12 -9 -20.5t-19 -8.5q-29 0 -29 29v66q0 29 -17.5 46t-47.5 17h-603v-463h512q31 0 48.5 18.5t17.5 47.5v65q0 12 10 20.5t22.5 8.5t21.5 -8t9 -21v-323q0 -10 -10 -19.5t-20 -9.5q-12 0 -22.5 9.5t-10.5 19.5v67q0 66 -66 66h-512v-791h603 q31 0 48 19.5t17 48.5v65q0 12 8.5 22.5t20.5 10.5q10 0 19 -10t9 -23v-190h-915q-33 0 -33 33q0 25 33 24h66q29 0 46 19.5t17 48.5v1182q0 29 -17.5 46t-45.5 17h-66q-14 0 -23.5 10.5t-9.5 22.5q0 10 9.5 19.5t23.5 9.5h915zM356 1794q29 0 29 -22q0 -31 -29 -31 q-27 0 -26 31q-1 22 26 22zM678 1794q27 0 27 -22q0 -31 -27 -31t-27 31q0 22 27 22z" />
<glyph unicode="&#xcc;" horiz-adv-x="471" d="M371 59q27 0 26 -26q0 -33 -26 -33h-326q-29 0 -29 33q0 27 29 26h66q31 0 49 18.5t18 49.5v1178q0 66 -67 65h-66q-29 0 -29 33q0 29 29 29h326q10 0 18 -9.5t8 -19.5q0 -12 -8 -22.5t-18 -10.5h-68q-31 0 -48 -17.5t-17 -45.5v-1180q0 -68 65 -68h68zM90 1821l45 43 l250 -252l-43 -43z" />
<glyph unicode="&#xcd;" horiz-adv-x="471" d="M371 59q27 0 26 -26q0 -33 -26 -33h-326q-29 0 -29 33q0 27 29 26h66q31 0 49 18.5t18 49.5v1178q0 66 -67 65h-66q-29 0 -29 33q0 29 29 29h326q10 0 18 -9.5t8 -19.5q0 -12 -8 -22.5t-18 -10.5h-68q-31 0 -48 -17.5t-17 -45.5v-1180q0 -68 65 -68h68zM342 1868l43 -41 l-258 -258l-41 43z" />
<glyph unicode="&#xce;" horiz-adv-x="471" d="M371 59q27 0 26 -26q0 -33 -26 -33h-326q-29 0 -29 33q0 27 29 26h66q31 0 49 18.5t18 49.5v1178q0 66 -67 65h-66q-29 0 -29 33q0 29 29 29h326q10 0 18 -9.5t8 -19.5q0 -12 -8 -22.5t-18 -10.5h-68q-31 0 -48 -17.5t-17 -45.5v-1180q0 -68 65 -68h68zM367 1757l-43 -43 l-86 84l-86 -86l-46 45l132 129z" />
<glyph unicode="&#xcf;" horiz-adv-x="471" d="M371 59q27 0 26 -26q0 -33 -26 -33h-326q-29 0 -29 33q0 27 29 26h66q66 0 65 68v1178q0 66 -65 65h-66q-12 0 -20.5 10.5t-8.5 22.5q0 10 8.5 19.5t20.5 9.5h326q10 0 18 -9.5t8 -19.5q0 -12 -8 -22.5t-18 -10.5h-68q-31 0 -48 -17.5t-17 -45.5v-1180q0 -68 65 -68h68z M76 1794q31 0 30 -22q0 -31 -30 -31q-29 0 -29 31q0 22 29 22zM399.5 1794q26.5 0 26.5 -22q0 -31 -26.5 -31t-26.5 31q0 22 26.5 22z" />
<glyph unicode="&#xd0;" horiz-adv-x="1179" d="M41 61h65q29 0 47.5 18.5t18.5 47.5v625h-158v61h158v494q0 31 -18.5 48t-47.5 17h-65q-12 0 -20.5 10.5t-8.5 22.5q0 10 8.5 19.5t20.5 9.5h190v-150q207 213 400 213q180 0 315 -137t144 -322l32 -587q-4 -205 -134 -348.5t-326 -143.5q-104 0 -218 63.5t-213 170.5 v-191h-190q-29 0 -29 33q0 26 29 26zM231 813h269v-61h-269v-299q0 -180 125 -306.5t306 -126.5q178 0 288.5 124t110.5 309l-35 589q-2 162 -117.5 279t-277.5 117q-166 0 -283 -117t-117 -281v-227z" />
<glyph unicode="&#xd1;" horiz-adv-x="1120" d="M1028 45q33 0 33 -29q0 -12 -9.5 -21t-23.5 -9h-197l-538 1200l-62 -12v-1172h-190q-12 0 -21.5 9t-9.5 22q0 27 31 26h68q29 0 46 18.5t17 49.5v1196q0 29 -18.5 47.5t-44.5 18.5h-68q-12 0 -21.5 9t-9.5 21q0 29 31 29h199l538 -1200l60 14v1170h190q14 0 23.5 -9.5 t9.5 -19.5t-10.5 -20.5t-22.5 -10.5h-65q-27 0 -43.5 -17.5t-16.5 -47.5v-1198q0 -27 16.5 -45.5t43.5 -18.5h65zM899 1743l45 -45q-82 -70 -196 -70q-127 0 -203 82q-80 70 -164 70q-80 0 -148 -60l-40 45q90 70 188 70q121 0 205 -84v2q74 -70 162 -70q79 1 151 60z" />
<glyph unicode="&#xd2;" horiz-adv-x="1062" d="M510 1497q201 0 346 -146.5t145 -349.5v-561q0 -205 -145 -350t-346 -145q-207 0 -353.5 145.5t-146.5 349.5v561q0 203 146.5 349.5t353.5 146.5zM942 440v561q0 182 -126 309.5t-306 127.5q-182 0 -309 -127t-127 -310v-561q0 -182 127 -308t309 -126q180 0 306 127 t126 307zM389 1821l43 43l252 -254l-43 -41z" />
<glyph unicode="&#xd3;" horiz-adv-x="1062" d="M510 1497q201 0 346 -146.5t145 -349.5v-561q0 -205 -145 -350t-346 -145q-207 0 -353.5 145.5t-146.5 349.5v561q0 203 146.5 349.5t353.5 146.5zM942 440v561q0 182 -126 309.5t-306 127.5q-182 0 -309 -127t-127 -310v-561q0 -182 127 -308t309 -126q180 0 306 127 t126 307zM637 1868l43 -41l-258 -258l-41 43z" />
<glyph unicode="&#xd4;" horiz-adv-x="1062" d="M510 1497q201 0 346 -146.5t145 -349.5v-561q0 -205 -145 -350t-346 -145q-207 0 -353.5 145.5t-146.5 349.5v561q0 203 146.5 349.5t353.5 146.5zM942 440v561q0 182 -126 309.5t-306 127.5q-182 0 -309 -127t-127 -310v-561q0 -182 127 -308t309 -126q180 0 306 127 t126 307zM670 1757l-43 -43l-84 90l-92 -92l-43 41l133 133z" />
<glyph unicode="&#xd5;" horiz-adv-x="1062" d="M510 1497q201 0 346 -146.5t145 -349.5v-561q0 -205 -145 -350t-346 -145q-207 0 -353.5 145.5t-146.5 349.5v561q0 203 146.5 349.5t353.5 146.5zM942 440v561q0 182 -126 309.5t-306 127.5q-182 0 -309 -127t-127 -310v-561q0 -182 127 -308t309 -126q180 0 306 127 t126 307zM868 1743l45 -45q-78 -70 -192 -70q-129 0 -205 82q-80 70 -166 70q-78 0 -145 -60l-43 45q90 70 188 70q119 0 207 -84v2q74 -70 164 -70q75 1 147 60z" />
<glyph unicode="&#xd6;" horiz-adv-x="1062" d="M510 1497q201 0 346 -146.5t145 -349.5v-561q0 -205 -145 -350t-346 -145q-207 0 -353.5 145.5t-146.5 349.5v561q0 203 146.5 349.5t353.5 146.5zM942 440v561q0 182 -126 309.5t-306 127.5q-182 0 -309 -127t-127 -310v-561q0 -182 127 -308t309 -126q180 0 306 127 t126 307zM377 1794q29 0 29 -22q0 -31 -29 -31q-27 0 -27 31q0 22 27 22zM700 1794q25 0 25 -22q0 -31 -25 -31q-29 0 -28 31q-1 22 28 22z" />
<glyph unicode="&#xd7;" horiz-adv-x="485" d="M365 731l47 -43l-152 -153l152 -152l-47 -43l-150 147l-152 -147l-45 45l150 150l-150 151l45 45l152 -149z" />
<glyph unicode="&#xd8;" horiz-adv-x="1062" d="M805 1561l-39 -144q109 -76 172 -186.5t63 -233.5v-561q0 -205 -144 -350t-347 -145q-53 0 -133 18q-18 -49 -49 -172l-60 18l45 170q-135 63 -219 189.5t-84 271.5v561q0 203 146.5 349.5t353.5 146.5q90 0 203 -41l16 64h-2l18 63zM74 436q0 -125 67.5 -231.5 t190.5 -165.5l153 573l209 777q-109 45 -184 45q-182 0 -309 -127t-127 -310v-561zM942 436v561q0 205 -190 361l-54 -201l-192 -725l-117 -418q86 -12 121 -12q180 0 306 127t126 307z" />
<glyph unicode="&#xd9;" horiz-adv-x="1368" d="M1284 59q10 0 19.5 -7t9.5 -17q0 -14 -9.5 -23.5t-19.5 -9.5h-194v174q-94 -111 -208 -174t-223 -63q-201 0 -344 143t-143 348v877q0 31 -19.5 48t-48.5 17h-65q-10 0 -19.5 10.5t-9.5 22.5q0 10 9.5 18.5t19.5 8.5h190v-1002q0 -180 125 -305t305.5 -125t305.5 125 t125 305v1002h194q10 0 19.5 -8.5t9.5 -18.5q0 -12 -9.5 -22.5t-19.5 -10.5h-67q-27 0 -44.5 -17.5t-17.5 -47.5v-1180q0 -29 17.5 -48.5t44.5 -19.5h67zM545 1821l45 43l250 -252l-43 -43z" />
<glyph unicode="&#xda;" horiz-adv-x="1368" d="M1284 59q10 0 19.5 -7t9.5 -17q0 -14 -9.5 -23.5t-19.5 -9.5h-194v174q-94 -111 -208 -174t-223 -63q-201 0 -344 143t-143 348v877q0 31 -19.5 48t-48.5 17h-65q-10 0 -19.5 10.5t-9.5 22.5q0 10 9.5 18.5t19.5 8.5h190v-1002q0 -180 125 -305t305.5 -125t305.5 125 t125 305v1002h194q10 0 19.5 -8.5t9.5 -18.5q0 -12 -9.5 -22.5t-19.5 -10.5h-67q-27 0 -44.5 -17.5t-17.5 -47.5v-1180q0 -29 17.5 -48.5t44.5 -19.5h67zM791 1868l43 -41l-259 -258l-40 43z" />
<glyph unicode="&#xdb;" horiz-adv-x="1368" d="M1284 59q10 0 19.5 -7t9.5 -17q0 -14 -9.5 -23.5t-19.5 -9.5h-194v174q-94 -111 -208 -174t-223 -63q-201 0 -344 143t-143 348v877q0 31 -19.5 48t-48.5 17h-65q-10 0 -19.5 10.5t-9.5 22.5q0 10 9.5 18.5t19.5 8.5h190v-1002q0 -180 125 -305t305.5 -125t305.5 125 t125 305v1002h194q10 0 19.5 -8.5t9.5 -18.5q0 -12 -9.5 -22.5t-19.5 -10.5h-67q-27 0 -44.5 -17.5t-17.5 -47.5v-1180q0 -29 17.5 -48.5t44.5 -19.5h67zM821 1757l-43 -43l-86 84l-45 -45v4l-43 -43l-43 43l131 129z" />
<glyph unicode="&#xdc;" horiz-adv-x="1368" d="M1284 59q10 0 19.5 -7t9.5 -17q0 -14 -9.5 -23.5t-19.5 -9.5h-194v174q-94 -111 -208 -174t-223 -63q-201 0 -344 143t-143 348v877q0 31 -19.5 48t-48.5 17h-65q-10 0 -19.5 10.5t-9.5 22.5q0 10 9.5 18.5t19.5 8.5h190v-1002q0 -180 125 -305t305.5 -125t305.5 125 t125 305v1002h194q10 0 19.5 -8.5t9.5 -18.5q0 -12 -9.5 -22.5t-19.5 -10.5h-67q-27 0 -44.5 -17.5t-17.5 -47.5v-1180q0 -29 17.5 -48.5t44.5 -19.5h67zM530 1794q31 0 31 -22q0 -31 -31 -31q-29 0 -28 31q-1 22 28 22zM850 1794q31 0 31 -22q0 -31 -31 -31q-23 0 -23 31 q0 22 23 22z" />
<glyph unicode="&#xdd;" horiz-adv-x="1173" d="M1083 1430q12 0 22.5 -8.5t10.5 -18.5q0 -12 -9 -22.5t-24 -10.5h-26q-74 0 -92 -41v2l-33 -59q-12 -23 -39 -62l-37 -53l2 2l-78 -123l-108 -178v2l-80 -131v-604q0 -31 17.5 -49.5t45.5 -18.5h68q27 0 27 -26q0 -31 -27 -31h-320q-29 0 -28 31q0 27 28 26h64 q31 0 49.5 18.5t18.5 49.5v580l-17 26l-188 318q-16 23 -47 76l-43 75l-93 150q-18 18 -77 18h-31q-10 0 -18.5 10.5t-8.5 22.5q0 10 8.5 17t18.5 7h141l62 -125l319 -520l172 271l109 174l41 69l51 90l-2 -2l29 48h122zM692 1868l43 -41l-258 -258l-41 43z" />
<glyph unicode="&#xde;" d="M672 1176q207 0 350 -144.5t143 -347.5q0 -205 -143 -349.5t-350 -144.5q-227 0 -436 246v-571h-60v1306q0 70 -70 70h-63q-12 0 -21.5 7t-9.5 18q0 12 9.5 23t21.5 11h193v-368q100 109 216 176.5t220 67.5zM672 250q182 0 307 126t125 308q0 178 -126 303t-306 125 q-178 0 -303 -125t-125 -303q0 -182 125 -308t303 -126z" />
<glyph unicode="&#xdf;" horiz-adv-x="1210" d="M971 1178q0 -133 -148 -265q156 -74 247 -199.5t91 -277.5q0 -203 -145.5 -349t-349.5 -146q-10 0 -18.5 10t-8.5 20q0 31 27 31q182 0 309 127t127 307q0 184 -127 310t-309 126h-437v-870h-190q-12 0 -22.5 10.5t-10.5 20.5q0 12 10.5 20t22.5 8h63q29 0 48.5 18.5 t19.5 49.5v1192q0 31 -19.5 48t-48.5 17h-63q-12 0 -22.5 9.5t-10.5 22t10.5 21.5t22.5 9h190v-162q197 225 404 225q139 0 238.5 -99t99.5 -234zM666 934q100 0 171.5 71.5t71.5 172.5q0 115 -80.5 193.5t-195.5 78.5q-168 0 -286 -118t-118 -285v-113h437z" />
<glyph unicode="&#xe0;" d="M1149 127q27 0 27 -35q0 -27 -27 -26h-197v186q-98 -115 -218 -183.5t-228 -68.5q-205 0 -352.5 146.5t-147.5 353.5q0 205 147.5 350t352.5 145q117 0 232.5 -66.5t213.5 -187.5v258h197q10 0 18.5 -10t8.5 -22q0 -29 -27 -29h-70q-27 0 -46 -18.5t-19 -47.5v-684 q0 -27 18.5 -44t46.5 -17h70zM506 61q184 0 311 127t127 312q0 180 -127 307t-311 127q-180 0 -309 -127t-129 -307q0 -182 129 -310.5t309 -128.5zM475 1331l41 41l258 -256l-43 -43z" />
<glyph unicode="&#xe1;" d="M1149 127q27 0 27 -35q0 -27 -27 -26h-197v186q-98 -115 -218 -183.5t-228 -68.5q-205 0 -352.5 146.5t-147.5 353.5q0 205 147.5 350t352.5 145q117 0 232.5 -66.5t213.5 -187.5v258h197q10 0 18.5 -10t8.5 -22q0 -29 -27 -29h-70q-27 0 -46 -18.5t-19 -47.5v-684 q0 -27 18.5 -44t46.5 -17h70zM506 61q184 0 311 127t127 312q0 180 -127 307t-311 127q-180 0 -309 -127t-129 -307q0 -182 129 -310.5t309 -128.5zM719 1372l43 -41l-258 -258l-41 43z" />
<glyph unicode="&#xe2;" d="M1149 127q27 0 27 -35q0 -27 -27 -26h-197v186q-98 -115 -218 -183.5t-228 -68.5q-205 0 -352.5 146.5t-147.5 353.5q0 205 147.5 350t352.5 145q117 0 232.5 -66.5t213.5 -187.5v258h197q10 0 18.5 -10t8.5 -22q0 -29 -27 -29h-70q-27 0 -46 -18.5t-19 -47.5v-684 q0 -27 18.5 -44t46.5 -17h70zM506 61q184 0 311 127t127 312q0 180 -127 307t-311 127q-180 0 -309 -127t-129 -307q0 -182 129 -310.5t309 -128.5zM754 1262l-41 -41l-90 88l-88 -88l-41 41l129 135z" />
<glyph unicode="&#xe3;" d="M1149 127q27 0 27 -35q0 -27 -27 -26h-197v186q-98 -115 -218 -183.5t-228 -68.5q-205 0 -352.5 146.5t-147.5 353.5q0 205 147.5 350t352.5 145q117 0 232.5 -66.5t213.5 -187.5v258h197q10 0 18.5 -10t8.5 -22q0 -29 -27 -29h-70q-27 0 -46 -18.5t-19 -47.5v-684 q0 -27 18.5 -44t46.5 -17h70zM506 61q184 0 311 127t127 312q0 180 -127 307t-311 127q-180 0 -309 -127t-129 -307q0 -182 129 -310.5t309 -128.5zM965 1249l41 -41q-82 -76 -197 -75q-123 0 -205 88q-72 66 -166 65q-80 0 -153 -57l-41 41q80 74 194 73q119 0 205 -86v3 q70 -68 166 -68q84 0 156 57z" />
<glyph unicode="&#xe4;" d="M1149 127q27 0 27 -35q0 -27 -27 -26h-197v186q-98 -115 -218 -183.5t-228 -68.5q-205 0 -352.5 146.5t-147.5 353.5q0 205 147.5 350t352.5 145q117 0 232.5 -66.5t213.5 -187.5v258h197q10 0 18.5 -10t8.5 -22q0 -29 -27 -29h-70q-27 0 -46 -18.5t-19 -47.5v-684 q0 -27 18.5 -44t46.5 -17h70zM506 61q184 0 311 127t127 312q0 180 -127 307t-311 127q-180 0 -309 -127t-129 -307q0 -182 129 -310.5t309 -128.5zM463 1307q8 0 16 -9.5t8 -19.5q0 -27 -24 -27q-31 0 -31 27q0 10 9.5 19.5t21.5 9.5zM784 1307q12 0 21.5 -9.5t9.5 -19.5 q0 -27 -31 -27q-25 0 -24 27q0 10 7 19.5t17 9.5z" />
<glyph unicode="&#xe5;" d="M1149 127q27 0 27 -35q0 -27 -27 -26h-197v186q-98 -115 -218 -183.5t-228 -68.5q-205 0 -352.5 146.5t-147.5 353.5q0 205 147.5 350t352.5 145q117 0 232.5 -66.5t213.5 -187.5v258h197q10 0 18.5 -10t8.5 -22q0 -29 -27 -29h-70q-27 0 -46 -18.5t-19 -47.5v-684 q0 -27 18.5 -44t46.5 -17h70zM506 61q184 0 311 127t127 312q0 180 -127 307t-311 127q-180 0 -309 -127t-129 -307q0 -182 129 -310.5t309 -128.5zM623 1333q47 0 78.5 -32.5t31.5 -77.5q0 -47 -31.5 -79t-78.5 -32q-43 0 -76 32t-33 79q0 45 33 77.5t76 32.5zM623 1157 q29 0 47 19.5t18 46t-18.5 44t-46.5 17.5q-25 0 -42.5 -17.5t-17.5 -44t17.5 -46t42.5 -19.5z" />
<glyph unicode="&#xe6;" horiz-adv-x="2289" d="M1141 127q10 0 18 -10.5t8 -24.5q0 -27 -26 -26h-197v186q-98 -113 -218 -182.5t-230 -69.5q-203 0 -351.5 146.5t-148.5 353.5q0 205 148.5 350t351.5 145q117 0 234.5 -66.5t213.5 -187.5v258h197q10 0 18 -10t8 -22.5t-8 -20.5t-18 -8h-70q-27 0 -46 -18.5t-19 -47.5 v-684q0 -27 18 -44t47 -17h70zM496 61q184 0 311 127t127 312q0 180 -127 307t-311 127q-178 0 -307.5 -128t-129.5 -306q0 -182 129.5 -310.5t307.5 -128.5zM2269 520h-942q8 -199 133 -330q129 -129 312 -129q160 0 301 117l43 -45q-76 -57 -171.5 -95t-172.5 -38 q-213 0 -357 145q-147 152 -147 357q0 207 147.5 352t358.5 145q197 0 339 -139t156 -340zM1337 582h865q-49 158 -167 257t-261 99q-156 0 -275 -99t-162 -257z" />
<glyph unicode="&#xe7;" horiz-adv-x="968" d="M545 61q166 0 317 129l47 -43q-113 -104 -272 -141l2 -65q47 -4 82 -32t37 -71q0 -47 -33 -71q-35 -29 -80 -29h-31q-47 0 -69 33q-29 33 -29 77v15h107q-104 76 -111 135q-96 16 -190.5 59t-153.5 101q-158 152 -158 374q0 225 158 377q156 156 375 156q180 0 366 -145 q-16 -16 -49 -46q-143 127 -315 127q-199 0 -336 -143h2q-139 -139 -139 -326q0 -188 139 -331q144 -140 334 -140zM936 123v47l-27 -23zM649 -209q43 4 60 62q-45 31 -72 30h-76q16 -78 53 -92h35z" />
<glyph unicode="&#xe8;" horiz-adv-x="1064" d="M1010 520h-942q12 -205 135 -332q131 -127 311 -127q158 0 299 117l45 -45q-78 -57 -173 -95t-171 -38q-215 0 -358 145q-147 147 -148 357q0 207 148.5 352t359.5 145q197 0 339.5 -139t154.5 -340zM80 582h860q-47 156 -162.5 256t-261.5 100q-156 0 -275.5 -99 t-160.5 -257zM395 1327l43 45l252 -256l-41 -43z" />
<glyph unicode="&#xe9;" horiz-adv-x="1064" d="M1010 520h-942q12 -205 135 -332q131 -127 311 -127q158 0 299 117l45 -45q-78 -57 -173 -95t-171 -38q-215 0 -358 145q-147 147 -148 357q0 207 148.5 352t359.5 145q197 0 339.5 -139t154.5 -340zM80 582h860q-47 156 -162.5 256t-261.5 100q-156 0 -275.5 -99 t-160.5 -257zM639 1372l43 -41l-258 -258l-41 43z" />
<glyph unicode="&#xea;" horiz-adv-x="1064" d="M1010 520h-942q12 -205 135 -332q131 -127 311 -127q158 0 299 117l45 -45q-78 -57 -173 -95t-171 -38q-215 0 -358 145q-147 147 -148 357q0 207 148.5 352t359.5 145q197 0 339.5 -139t154.5 -340zM80 582h860q-47 156 -162.5 256t-261.5 100q-156 0 -275.5 -99 t-160.5 -257zM672 1264l-43 -43l-84 88l-92 -88l-43 41l135 135z" />
<glyph unicode="&#xeb;" horiz-adv-x="1064" d="M1010 520h-942q12 -205 135 -332q131 -127 311 -127q158 0 299 117l45 -45q-78 -57 -173 -95t-171 -38q-215 0 -358 145q-147 147 -148 357q0 207 148.5 352t359.5 145q197 0 339.5 -139t154.5 -340zM80 582h860q-47 156 -162.5 256t-261.5 100q-156 0 -275.5 -99 t-160.5 -257zM379 1307q12 0 21.5 -9.5t9.5 -19.5q0 -27 -31 -27q-29 0 -29 27q0 10 9.5 19.5t19.5 9.5zM707 1307q10 0 18 -9.5t8 -19.5q0 -27 -26 -27q-29 0 -29 27q0 10 8.5 19.5t20.5 9.5z" />
<glyph unicode="&#xec;" horiz-adv-x="471" d="M375 123q10 0 19 -10.5t9 -24.5q0 -27 -28 -27h-330q-27 0 -27 27q0 14 8.5 24.5t18.5 10.5h70q29 0 48 17.5t19 43.5v682q0 70 -71 70h-66q-12 0 -21.5 8t-9.5 21q0 10 10.5 21t20.5 11h199v-813q0 -25 18.5 -43t42.5 -18h70zM92 1327l43 45l252 -254l-41 -45z" />
<glyph unicode="&#xed;" horiz-adv-x="471" d="M375 123q10 0 19 -10.5t9 -24.5q0 -27 -28 -27h-330q-27 0 -27 27q0 14 8.5 24.5t18.5 10.5h70q29 0 48 17.5t19 43.5v682q0 70 -71 70h-66q-12 0 -21.5 8t-9.5 21q0 10 10.5 21t20.5 11h199v-813q0 -25 18.5 -43t42.5 -18h70zM342 1372l43 -41l-258 -258l-41 43z" />
<glyph unicode="&#xee;" horiz-adv-x="471" d="M375 123q10 0 19 -10.5t9 -24.5q0 -27 -28 -27h-330q-27 0 -27 27q0 14 8.5 24.5t18.5 10.5h70q29 0 48 17.5t19 43.5v682q0 70 -71 70h-66q-12 0 -21.5 8t-9.5 21q0 10 10.5 21t20.5 11h199v-813q0 -25 18.5 -43t42.5 -18h70zM371 1264l-45 -43l-86 88l-86 -88 q-10 8 -25 22l-20 21l131 133z" />
<glyph unicode="&#xef;" horiz-adv-x="471" d="M375 123q10 0 20.5 -10.5t10.5 -24.5q0 -27 -31 -27h-330q-27 0 -27 27q0 14 8.5 24.5t18.5 10.5h70q29 0 47 17.5t18 43.5v682q0 70 -69 70h-66q-12 0 -21.5 8t-9.5 21q0 10 10.5 21t20.5 11h197v-813q0 -27 18.5 -44t46.5 -17h68zM76 1307q12 0 21 -9.5t9 -19.5 q0 -27 -30 -27q-27 0 -27 27q0 10 8.5 19.5t18.5 9.5zM401 1307q27 0 27 -29q0 -27 -26.5 -27t-26.5 27q0 10 8 19.5t18 9.5z" />
<glyph unicode="&#xf0;" horiz-adv-x="1122" d="M719 1212l170 -284q184 -164 184 -398q0 -219 -156.5 -374.5t-377.5 -155.5q-219 0 -375 155.5t-156 374.5q0 213 149.5 369t362.5 162h55l48 76l-5 -2q4 4 7 8l4 8l4 8l29 58l-37 61l-47 72q-53 0 -54 24q0 8 9.5 16.5t19.5 8.5h59l84 -150l66 119l14 31l62 2 q8 0 15 -9.5t7 -17.5q0 -23 -22 -22l-37 -4zM538.5 61q194.5 0 334 137.5t139.5 332t-139.5 332.5t-334 138t-331.5 -138t-137 -332.5t137 -332t331.5 -137.5zM698 1165l-84 -108q78 -20 170 -51l-53 98q-10 10 -33 61z" />
<glyph unicode="&#xf1;" horiz-adv-x="1372" d="M1300 123q10 0 18.5 -11.5t8.5 -23.5q0 -27 -27 -27h-196v441q0 180 -127 307t-311 127q-180 0 -308.5 -127t-128.5 -307v-439h-190q-31 0 -31 27q0 35 31 35h65q31 0 48.5 17.5t17.5 43.5v684q0 29 -17.5 47.5t-48.5 18.5h-65q-31 0 -31 29q0 33 31 32h190v-235 q100 100 220 167.5t217 67.5q207 0 353 -145t146 -350v-318q0 -27 18.5 -44t47.5 -17h69zM1038 1251l43 -43q-82 -76 -196 -75q-127 0 -209 86q-72 68 -162 67q-84 0 -154 -57q-31 31 -43 45q88 70 197 69q115 0 207 -86v3q68 -68 164 -68q75 0 153 59z" />
<glyph unicode="&#xf2;" horiz-adv-x="1122" d="M539 1061q20 0 118 -8q188 -59 302 -201.5t114 -321.5q0 -219 -156.5 -374.5t-377.5 -155.5q-219 0 -375 155.5t-156 375t156 375t375 155.5zM422 1331l41 41l258 -256l-43 -43zM705 1047l-27 26l-21 -20q6 0 23 -3t25 -3zM538.5 61q194.5 0 334 137.5t139.5 332 t-139.5 332.5t-334 138t-331.5 -138t-137 -332.5t137 -332t331.5 -137.5z" />
<glyph unicode="&#xf3;" horiz-adv-x="1122" d="M539 1061q221 0 377.5 -155.5t156.5 -375t-156.5 -375t-377.5 -155.5q-219 0 -375 155.5t-156 375t156 375t375 155.5zM538.5 61q194.5 0 334 137.5t139.5 332t-139.5 332.5t-334 138t-331.5 -138t-137 -332.5t137 -332t331.5 -137.5zM668 1372l43 -41l-258 -258l-41 43z " />
<glyph unicode="&#xf4;" horiz-adv-x="1122" d="M539 1061q221 0 377.5 -155.5t156.5 -375t-156.5 -375t-377.5 -155.5q-219 0 -375 155.5t-156 375t156 375t375 155.5zM538.5 61q194.5 0 334 137.5t139.5 332t-139.5 332.5t-334 138t-331.5 -138t-137 -332.5t137 -332t331.5 -137.5zM700 1262l-41 -41l-86 88l-92 -88 l-41 41l131 133z" />
<glyph unicode="&#xf5;" horiz-adv-x="1122" d="M539 1061q221 0 377.5 -155.5t156.5 -375t-156.5 -375t-377.5 -155.5q-219 0 -375 155.5t-156 375t156 375t375 155.5zM538.5 61q194.5 0 334 137.5t139.5 332t-139.5 332.5t-334 138t-331.5 -138t-137 -332.5t137 -332t331.5 -137.5zM911 1249l41 -41q-90 -76 -196 -75 q-121 0 -207 86q-78 68 -164 67q-76 0 -154 -57l-41 41q80 74 195 73q117 0 207 -86v3q68 -68 164 -68q83 0 155 57z" />
<glyph unicode="&#xf6;" horiz-adv-x="1122" d="M539 1061q221 0 377.5 -155.5t156.5 -375t-156.5 -375t-377.5 -155.5q-219 0 -375 155.5t-156 375t156 375t375 155.5zM538.5 61q194.5 0 334 137.5t139.5 332t-139.5 332.5t-334 138t-331.5 -138t-137 -332.5t137 -332t331.5 -137.5zM410 1307q10 0 18 -9.5t8 -19.5 q0 -27 -26 -27q-31 0 -31 27q0 10 9.5 19.5t21.5 9.5zM731 1307q31 0 31 -29q0 -27 -31 -27q-25 0 -24 27q0 10 7 19.5t17 9.5z" />
<glyph unicode="&#xf7;" horiz-adv-x="1044" d="M983 565h-977v-61h977v61zM532 106q-27 0 -44 19.5t-17 44.5q0 27 17.5 45t43.5 18q23 0 40.5 -18t17.5 -45q0 -25 -17.5 -44.5t-40.5 -19.5zM532 852q-27 0 -44 18.5t-17 43t17.5 43t43.5 18.5q23 0 40.5 -18.5t17.5 -43t-17.5 -43t-40.5 -18.5z" />
<glyph unicode="&#xf8;" horiz-adv-x="1122" d="M756 1231l-60 -207q168 -66 272.5 -202t104.5 -302q0 -219 -156.5 -374.5t-377.5 -155.5q-47 0 -115 12l-62 -221l-61 14l61 228q-156 68 -255 203.5t-99 293.5q0 221 155.5 376t375.5 155h22q27 0 74 -9q4 18 24.5 95t32.5 114zM70 520q0 -145 81.5 -263t223.5 -181 l254 915h-90q-195 0 -332 -138t-137 -333zM539 51q197 0 335 136.5t138 332.5q0 141 -90.5 265t-233.5 188l-252 -914q61 -8 86 -8h17z" />
<glyph unicode="&#xf9;" horiz-adv-x="1372" d="M1300 127q27 0 27 -35q0 -27 -27 -26h-196v176q-96 -113 -213 -177.5t-225 -64.5q-203 0 -349.5 145.5t-146.5 354.5v368q0 29 -18.5 49.5t-47.5 20.5h-65q-31 0 -31 28.5t31 28.5h190v-495q0 -182 128 -310.5t309 -128.5q184 0 311 127t127 312v495h196q10 0 18.5 -9 t8.5 -19q0 -29 -27 -29h-69q-27 0 -46.5 -21.5t-19.5 -48.5v-680q0 -27 18.5 -44t47.5 -17h69zM551 1331l43 41l254 -254l-45 -43z" />
<glyph unicode="&#xfa;" horiz-adv-x="1372" d="M1300 127q27 0 27 -35q0 -27 -27 -26h-196v176q-96 -113 -213 -177.5t-225 -64.5q-203 0 -349.5 145.5t-146.5 354.5v368q0 29 -18.5 49.5t-47.5 20.5h-65q-31 0 -31 28.5t31 28.5h190v-495q0 -182 128 -310.5t309 -128.5q184 0 311 127t127 312v495h196q10 0 18.5 -9 t8.5 -19q0 -29 -27 -29h-69q-27 0 -46.5 -21.5t-19.5 -48.5v-680q0 -27 18.5 -44t47.5 -17h69zM793 1372l43 -41l-258 -258l-41 43z" />
<glyph unicode="&#xfb;" horiz-adv-x="1372" d="M1300 127q27 0 27 -35q0 -27 -27 -26h-196v176q-96 -113 -213 -177.5t-225 -64.5q-203 0 -349.5 145.5t-146.5 354.5v368q0 29 -18.5 49.5t-47.5 20.5h-65q-31 0 -31 28.5t31 28.5h190v-495q0 -182 128 -310.5t309 -128.5q184 0 311 127t127 312v495h196q10 0 18.5 -9 t8.5 -19q0 -29 -27 -29h-69q-27 0 -46.5 -21.5t-19.5 -48.5v-680q0 -27 18.5 -44t47.5 -17h69zM829 1262l-41 -41l-90 88l-88 -88q-8 8 -22.5 20t-20.5 21l131 135z" />
<glyph unicode="&#xfc;" horiz-adv-x="1372" d="M1300 127q27 0 27 -35q0 -27 -27 -26h-196v176q-96 -113 -213 -177.5t-225 -64.5q-203 0 -349.5 145.5t-146.5 354.5v368q0 29 -18.5 49.5t-47.5 20.5h-65q-31 0 -31 28.5t31 28.5h190v-495q0 -182 128 -310.5t309 -128.5q184 0 311 127t127 312v495h196q10 0 18.5 -9 t8.5 -19q0 -29 -27 -29h-69q-27 0 -46.5 -21.5t-19.5 -48.5v-680q0 -27 18.5 -44t47.5 -17h69zM534.5 1307q10.5 0 20.5 -9.5t10 -19.5q0 -27 -30 -27q-27 0 -27 27q0 10 8 19.5t18.5 9.5zM860 1307q31 0 31 -29q0 -27 -31 -27q-29 0 -29 27q0 10 9.5 19.5t19.5 9.5z" />
<glyph unicode="&#xfd;" horiz-adv-x="1380" d="M1167 -901h-61v1149q-96 -113 -212 -177.5t-224 -64.5q-209 0 -356.5 146.5t-147.5 355.5v358q0 70 -62 70h-69q-27 0 -27 31q0 33 27 32h196v-491q0 -184 127 -312t312 -128q182 0 309 129t127 311v491h197q12 0 22 -10t10 -22.5t-9 -21.5t-23 -9h-66q-70 0 -70 -70 v-1767zM797 1372l43 -41l-258 -258l-41 43z" />
<glyph unicode="&#xfe;" d="M676 997q209 0 354.5 -144t145.5 -351q0 -209 -145.5 -354.5t-354.5 -145.5q-115 0 -230.5 65.5t-212.5 186.5v-795h-61v1727q0 68 -70 67h-61q-12 0 -23.5 8.5t-11.5 20.5q0 14 11.5 24.5t23.5 10.5h192v-569q100 115 217 182t226 67zM676 63q182 0 311 128t129 311 q0 180 -129 307t-311 127q-178 0 -305 -127t-127 -307q0 -182 127 -310.5t305 -128.5z" />
<glyph unicode="&#xff;" horiz-adv-x="1536" d="M1167 -901h-61v1149q-96 -113 -212 -177.5t-224 -64.5q-209 0 -356.5 146.5t-147.5 355.5v358q0 70 -62 70h-69q-27 0 -27 31q0 33 27 32h196v-491q0 -184 127 -312t312 -128q182 0 309 129t127 311v491h197q12 0 22 -10t10 -22.5t-9 -21.5t-23 -9h-66q-70 0 -70 -70 v-1767zM621 1307q27 0 26 -29q0 -27 -26 -27q-29 0 -29 27q0 10 9.5 19.5t19.5 9.5zM944 1307q12 0 21.5 -9.5t9.5 -19.5q0 -27 -31 -27q-25 0 -24 27q-1 29 24 29z" />
<glyph unicode="&#x152;" horiz-adv-x="2084" d="M502 1497q205 0 349 -146.5t144 -349.5v-561q0 -205 -144 -350t-349 -145t-350.5 145.5t-145.5 349.5v561q0 203 145.5 349.5t350.5 146.5zM934 440v561q0 182 -126 309.5t-306 127.5q-182 0 -308 -127t-126 -310v-561q0 -182 125.5 -308t308.5 -126q180 0 306 127 t126 307zM2042 1432v-191q0 -29 -31 -29q-27 0 -26 29v66q0 29 -18.5 46t-49.5 17h-602v-463h512q31 0 49 18.5t18 47.5v65q0 29 31 29q27 0 27 -29v-323q0 -29 -27 -29q-12 0 -21.5 9.5t-9.5 19.5v67q0 66 -67 66h-512v-791h602q31 0 49.5 19.5t18.5 48.5v65q0 33 26 33 q12 0 21.5 -10t9.5 -23v-190h-918q-12 0 -21 9t-9 24q0 10 9 17t21 7h64q27 0 45 19.5t18 48.5v1182q0 27 -18.5 45t-44.5 18h-64q-12 0 -21 10.5t-9 22.5q0 10 9 19.5t21 9.5h918z" />
<glyph unicode="&#x153;" horiz-adv-x="2187" d="M528 1061q221 0 378 -155.5t157 -375t-156.5 -375t-378.5 -155.5q-217 0 -373.5 155.5t-156.5 375t156.5 375t373.5 155.5zM528 61q197 0 335 137.5t138 332t-138 332.5t-335 138q-195 0 -332 -138t-137 -332.5t137 -332t332 -137.5zM2163 520h-938q6 -203 133 -330 q125 -129 309 -129q158 0 299 119l45 -45q-152 -135 -344 -135q-207 0 -360 147v-2q-145 145 -146 357q0 207 148.5 352t357.5 145q197 0 340.5 -139t155.5 -340zM1231 582h862q-43 158 -160.5 257t-265.5 99q-154 0 -274.5 -99t-161.5 -257z" />
<glyph unicode="&#x178;" horiz-adv-x="1173" d="M1083 1430q12 0 22.5 -8.5t10.5 -18.5q0 -12 -9 -22.5t-24 -10.5h-26q-74 0 -92 -41v2l-33 -59q-12 -23 -39 -62l-37 -53l2 2l-78 -123l-108 -178v2l-80 -131v-604q0 -31 17.5 -49.5t45.5 -18.5h68q27 0 27 -26q0 -31 -27 -31h-320q-29 0 -28 31q0 27 28 26h64 q31 0 49.5 18.5t18.5 49.5v580l-17 26l-188 318q-16 23 -47 76l-43 75l-93 150q-18 18 -77 18h-31q-10 0 -18.5 10.5t-8.5 22.5q0 10 8.5 17t18.5 7h141l62 -125l319 -520l172 271l109 174l41 69l51 90l-2 -2l29 48h122zM432 1794q31 0 31 -22q0 -31 -31 -31q-27 0 -26 31 q-1 22 26 22zM755.5 1794q26.5 0 26.5 -22q0 -31 -26.5 -31t-26.5 31q0 22 26.5 22z" />
<glyph unicode="&#x2c6;" horiz-adv-x="358" d="M283 1262l-43 -41l-90 88l-87 -88l-43 41l130 135z" />
<glyph unicode="&#x2dc;" horiz-adv-x="843" d="M737 1249l43 -39q-84 -78 -198 -77q-121 0 -203 88q-76 66 -166 65q-80 0 -154 -57l-43 41q80 74 197 73q115 0 205 -86v3q70 -68 164 -68q85 0 155 57z" />
<glyph unicode="&#x2000;" horiz-adv-x="942" />
<glyph unicode="&#x2001;" horiz-adv-x="1886" />
<glyph unicode="&#x2002;" horiz-adv-x="942" />
<glyph unicode="&#x2003;" horiz-adv-x="1886" />
<glyph unicode="&#x2004;" horiz-adv-x="628" />
<glyph unicode="&#x2005;" horiz-adv-x="471" />
<glyph unicode="&#x2006;" horiz-adv-x="313" />
<glyph unicode="&#x2007;" horiz-adv-x="313" />
<glyph unicode="&#x2008;" horiz-adv-x="235" />
<glyph unicode="&#x2009;" horiz-adv-x="376" />
<glyph unicode="&#x200a;" horiz-adv-x="104" />
<glyph unicode="&#x2010;" horiz-adv-x="567" d="M12 567h490v-61h-490v61z" />
<glyph unicode="&#x2011;" horiz-adv-x="567" d="M12 567h490v-61h-490v61z" />
<glyph unicode="&#x2012;" horiz-adv-x="567" d="M12 567h490v-61h-490v61z" />
<glyph unicode="&#x2013;" horiz-adv-x="1044" d="M10 567h981v-61h-981v61z" />
<glyph unicode="&#x2014;" horiz-adv-x="1576" d="M4 567h1534v-61h-1534v61z" />
<glyph unicode="&#x2018;" horiz-adv-x="200" d="M76 1038l-60 17l50 178l32 -9l25 -7z" />
<glyph unicode="&#x2019;" horiz-adv-x="200" d="M121 1057l-55 -17l-46 177l29 9q16 5 25 7z" />
<glyph unicode="&#x201a;" horiz-adv-x="200" d="M76 -104l-60 14l50 180q14 -4 32 -10l25 -8z" />
<glyph unicode="&#x201c;" horiz-adv-x="364" d="M74 1038l-56 17q47 174 48 178q16 -4 33.5 -10t19.5 -6l-23 -90zM244 1038l-58 19q8 33 24 89l23 87l33 -9l25 -7z" />
<glyph unicode="&#x201d;" horiz-adv-x="364" d="M291 1057l-55 -19l-24 90l-24 89q12 4 31 9t25 7zM119 1057l-56 -17l-43 177l54 14q39 -147 45 -174z" />
<glyph unicode="&#x201e;" horiz-adv-x="364" d="M74 -104l-56 14l48 180q16 -4 32.5 -10t20.5 -8l-23 -88zM244 -104l-58 16l24 90l23 88q14 -4 33 -10l25 -8z" />
<glyph unicode="&#x2022;" horiz-adv-x="348" d="M143 406q-53 0 -90 37.5t-37 91t38 92.5t89 39q55 0 94 -39t39 -92.5t-39 -91t-94 -37.5z" />
<glyph unicode="&#x2026;" horiz-adv-x="638" d="M76 63q-27 0 -45.5 18.5t-18.5 43.5t18.5 43t45.5 18q23 0 41 -18t18 -43t-18 -43.5t-41 -18.5zM297 63q-27 0 -44 18.5t-17 43.5t17 43t44 18q23 0 40 -18t17 -43t-17 -43.5t-40 -18.5zM516.5 63q-24.5 0 -43 18.5t-18.5 43.5t18.5 43t43 18t43 -18t18.5 -43 t-18.5 -43.5t-43 -18.5z" />
<glyph unicode="&#x202f;" horiz-adv-x="376" />
<glyph unicode="&#x2039;" horiz-adv-x="335" d="M215 743l41 -41l-154 -147l156 -156q-8 -12 -23.5 -25.5t-19.5 -19.5l-192 197z" />
<glyph unicode="&#x203a;" horiz-adv-x="335" d="M25 702l38 43l195 -192l-192 -199l-43 45l151 156z" />
<glyph unicode="&#x2044;" horiz-adv-x="622" d="M555 1583l-479 -1792l-62 16l480 1790z" />
<glyph unicode="&#x205f;" horiz-adv-x="471" />
<glyph unicode="&#x20ac;" horiz-adv-x="1069" d="M311 201l2 -2q147 -137 334 -138q174 0 322 129l43 -43q-156 -147 -367 -147q-98 0 -198.5 42t-176.5 116q-92 92 -143 243h-119v62h109q-4 78 2 149h-111v60h123q51 143 141 239h-2q154 154 375 154q193 0 365 -145l-43 -46q-145 127 -320 127q-190 0 -334 -143 q-39 -39 -118 -186h706v-60h-725q-6 -74 0 -149h725v-62h-713q45 -114 123 -200z" />
<glyph unicode="&#x2122;" horiz-adv-x="1251" d="M438 1149q0 -27 -26 -27q-23 0 -23 62l-141 2v-479q25 0 45 -7.5t20 -15.5q0 -10 -9 -18.5t-19 -8.5h-125q-27 0 -27 27q0 8 18.5 15.5t43.5 7.5l2 479h-138q0 -63 -26.5 -63.5t-26.5 26.5v86h432v-86zM1143 739l35 -37q27 0 26 -20q0 -27 -26 -27h-82v506l-209 -205 l-31 -30l-238 233v-504h-83q-23 0 -23 27q0 20 57 20l2 484q-59 0 -59 26q0 20 23 21h81l242 -238l240 238h80q27 0 26 -21q0 -27 -61 -26v-447z" />
<glyph unicode="&#xe000;" horiz-adv-x="990" d="M0 990h990v-990h-990v990z" />
<glyph unicode="&#xfb01;" horiz-adv-x="968" d="M463 997q18 0 37 -34q-23 -23 -37 -23h-164q-29 0 -47.5 -19.5t-18.5 -50.5v-686q0 -25 19.5 -45t46.5 -20h68q12 0 21 -10.5t9 -20.5q0 -27 -30 -27h-326q-31 0 -31 27q0 10 10.5 20.5t20.5 10.5h65q27 0 46.5 20.5t19.5 44.5v686q0 27 -19.5 48.5t-46.5 21.5h-65 q-12 0 -21.5 8t-9.5 21q0 10 10.5 19t20.5 9h131v121q0 139 99.5 237.5t238.5 98.5q12 0 21.5 -9t9.5 -20q0 -14 -9.5 -24t-21.5 -10q-115 0 -196 -80t-81 -193v-121h230zM885 123q12 0 21 -10.5t9 -24.5q0 -27 -30 -27h-326q-29 0 -29 27q0 35 29 35h68q29 0 47 17.5 t18 43.5v682q0 70 -69 70h-64q-23 0 -51 31q43 31 51 30h195v-813q0 -27 18.5 -44t46.5 -17h66zM502 961l6 6q-2 0 -2 2l-6 -6q0 -2 2 -2zM690 1356q-23 0 -41 18.5t-18 43t18.5 43t40.5 18.5q27 0 45.5 -18.5t18.5 -43t-18.5 -43t-45.5 -18.5z" />
<glyph unicode="&#xfb02;" horiz-adv-x="968" d="M885 123q12 0 21 -11.5t9 -23.5q0 -27 -30 -27h-326q-29 0 -29 27q0 12 8.5 23.5t20.5 11.5h64q31 0 50 17.5t19 43.5v1139q0 29 -19.5 47.5t-49.5 18.5h-97q-2 0 -7 1t-9 1q-115 0 -196 -80t-81 -193v-121h230q10 0 20.5 -9t10.5 -19q0 -12 -9.5 -20.5t-21.5 -8.5h-164 q-29 0 -47.5 -19.5t-18.5 -50.5v-686q0 -25 19.5 -45t46.5 -20h68q12 0 21 -10.5t9 -20.5q0 -27 -30 -27h-326q-31 0 -31 27q0 10 10.5 20.5t20.5 10.5h65q27 0 46.5 20.5t19.5 44.5v686q0 27 -19.5 48.5t-46.5 21.5h-65q-12 0 -21.5 8t-9.5 21q0 10 10.5 19t20.5 9h131v121 q0 139 99.5 237.5t238.5 98.5h8q45 -4 236 -4v-1266q0 -27 18.5 -44t46.5 -17h66z" />
<glyph unicode="&#xfb03;" horiz-adv-x="1404" d="M508 1391q-115 0 -196 -80t-81 -193v-121h439v121q0 139 99 237.5t239 98.5q10 0 20 -9t10 -20q0 -14 -10 -24t-20 -10q-115 0 -196 -80t-81 -193v-121h469v-813q0 -27 18.5 -44t47.5 -17h67q29 0 29 -35q0 -27 -29 -27h-325q-31 0 -31 27q0 14 9 24.5t22 10.5h65 q29 0 47.5 17.5t18.5 43.5v686q0 33 -18.5 51.5t-49.5 18.5h-272q-31 0 -49.5 -18.5t-18.5 -51.5v-686q0 -27 19.5 -46t48.5 -19h63q14 0 24.5 -9.5t10.5 -21.5q0 -27 -35 -27h-323q-31 0 -31 27q0 10 9 20.5t22 10.5h65q27 0 46.5 20.5t19.5 44.5v686q0 27 -19.5 48.5 t-46.5 21.5h-307q-66 0 -66 -70v-686q0 -27 18.5 -46t47.5 -19h65q12 0 21.5 -9.5t9.5 -21.5q0 -27 -31 -27h-323q-31 0 -31 27q0 12 9.5 21.5t21.5 9.5h65q29 0 46.5 19.5t17.5 45.5v686q0 27 -17.5 48.5t-46.5 21.5h-65q-31 0 -31 28.5t31 28.5h129v121q0 139 100.5 237.5 t239.5 98.5q10 0 20.5 -9t10.5 -20q0 -14 -10.5 -24t-20.5 -10zM1139 1356q-25 0 -41.5 18.5t-16.5 43t16.5 43t41.5 18.5q27 0 44 -18.5t17 -43t-17 -43t-44 -18.5z" />
<glyph unicode="&#xfb04;" horiz-adv-x="1421" d="M506 1391q-113 0 -194 -80t-81 -193v-121h439v121q0 139 99 237.5t237 98.5q37 0 106.5 -2t104.5 -2v-1266q0 -27 18 -44t47 -17h66q12 0 21 -11.5t9 -23.5q0 -27 -30 -27h-324q-31 0 -31 27q0 12 10.5 23.5t20.5 11.5h61q31 0 50.5 17.5t19.5 43.5v1139q0 29 -19.5 48.5 t-50.5 19.5q-4 0 -13 -1t-11 -1h-47l-2 2q-115 -6 -198 -86t-83 -187v-121h227q10 0 20.5 -9t10.5 -19q0 -12 -9 -20.5t-22 -8.5h-157q-70 0 -70 -70v-686q0 -27 18.5 -46t51.5 -19h61q14 0 24.5 -10.5t10.5 -20.5q0 -27 -35 -27h-325q-31 0 -31 27q0 10 10 20.5t21 10.5h67 q27 0 46.5 20.5t19.5 44.5v686q0 27 -19.5 48.5t-46.5 21.5h-307q-66 0 -66 -70v-686q0 -27 17.5 -46t48.5 -19h65q12 0 21.5 -10.5t9.5 -20.5q0 -27 -31 -27h-323q-31 0 -31 27q0 10 9.5 20.5t21.5 10.5h65q27 0 46.5 20.5t19.5 44.5v686q0 27 -19.5 48.5t-46.5 21.5h-65 q-31 0 -31 29q0 10 9.5 19t21.5 9h131v121q0 139 98.5 237.5t237.5 98.5q12 0 21.5 -9t9.5 -20q0 -14 -9.5 -24t-21.5 -10z" />
<glyph horiz-adv-x="1024" />
</font>
</defs>
</svg>
